<?xml version="1.0" encoding="UTF-8" standalone="no"?>
<!-- Created with Inkscape (http://www.inkscape.org/) -->

<svg
   xmlns:dc="http://purl.org/dc/elements/1.1/"
   xmlns:cc="http://creativecommons.org/ns#"
   xmlns:rdf="http://www.w3.org/1999/02/22-rdf-syntax-ns#"
   xmlns:svg="http://www.w3.org/2000/svg"
   xmlns="http://www.w3.org/2000/svg"
   xmlns:sodipodi="http://sodipodi.sourceforge.net/DTD/sodipodi-0.dtd"
   xmlns:inkscape="http://www.inkscape.org/namespaces/inkscape"
   width="210mm"
   height="297mm"
   viewBox="0 0 210 297"
   version="1.1"
   id="svg17115"
   sodipodi:docname="GeonkickLogo.svg"
   inkscape:version="0.92.1 r15371">
  <defs
     id="defs17109" />
  <sodipodi:namedview
     id="base"
     pagecolor="#ffffff"
     bordercolor="#666666"
     borderopacity="1.0"
     inkscape:pageopacity="0.0"
     inkscape:pageshadow="2"
     inkscape:zoom="0.702883"
     inkscape:cx="-74.067247"
     inkscape:cy="549.87814"
     inkscape:document-units="mm"
     inkscape:current-layer="layer1"
     showgrid="false"
     inkscape:window-width="1918"
     inkscape:window-height="1002"
     inkscape:window-x="0"
     inkscape:window-y="26"
     inkscape:window-maximized="1" />
  <metadata
     id="metadata17112">
    <rdf:RDF>
      <cc:Work
         rdf:about="">
        <dc:format>image/svg+xml</dc:format>
        <dc:type
           rdf:resource="http://purl.org/dc/dcmitype/StillImage" />
      </cc:Work>
    </rdf:RDF>
  </metadata>
  <g
     inkscape:label="Layer 1"
     inkscape:groupmode="layer"
     id="layer1">
    <circle
       style="opacity:1;fill:#434444;fill-opacity:1;stroke:none;stroke-width:0.23428932;stroke-linecap:round;stroke-miterlimit:4;stroke-dasharray:none;stroke-opacity:1"
       id="path17689"
       cx="111.92233"
       cy="161.15251"
       r="90.542618"
       inkscape:export-xdpi="6.7327414"
       inkscape:export-ydpi="6.7327414"
       inkscape:export-filename="/home/iurie/geonkick/src/resources/app_icon.png" />
    <path
       style="color:#000000;font-style:normal;font-variant:normal;font-weight:normal;font-stretch:normal;font-size:medium;line-height:normal;font-family:sans-serif;font-variant-ligatures:normal;font-variant-position:normal;font-variant-caps:normal;font-variant-numeric:normal;font-variant-alternates:normal;font-feature-settings:normal;text-indent:0;text-align:start;text-decoration:none;text-decoration-line:none;text-decoration-style:solid;text-decoration-color:#000000;letter-spacing:normal;word-spacing:normal;text-transform:none;writing-mode:lr-tb;direction:ltr;text-orientation:mixed;dominant-baseline:auto;baseline-shift:baseline;text-anchor:start;white-space:normal;shape-padding:0;clip-rule:nonzero;display:inline;overflow:visible;visibility:visible;opacity:1;isolation:auto;mix-blend-mode:normal;color-interpolation:sRGB;color-interpolation-filters:linearRGB;solid-color:#000000;solid-opacity:1;vector-effect:none;fill:#000000;fill-opacity:1;fill-rule:nonzero;stroke:none;stroke-width:18.77318382;stroke-linecap:butt;stroke-linejoin:miter;stroke-miterlimit:4;stroke-dasharray:none;stroke-dashoffset:0;stroke-opacity:1;color-rendering:auto;image-rendering:auto;shape-rendering:auto;text-rendering:auto;enable-background:accumulate"
       d="m 80.15687,119.77294 c -0.33164,-0.0133 -1.04552,0.0186 -2.13031,0.19946 -0.84606,0.14105 -1.27684,0.27525 -1.63019,0.38793 -0.027,-7.5e-4 -0.0766,0.0107 -0.19287,0.0462 -0.24078,0.0834 -0.37625,0.13383 -0.30724,0.13053 -0.325,0.11433 -0.69183,0.24178 -1.37135,0.58153 v 0 c -1.5403,0.77023 -1.93731,1.20455 -1.43292,0.86826 0.0248,-0.0166 -0.20747,0.12198 -0.6732,0.45466 0.23185,-0.1656 -0.30518,0.16248 -1.14986,0.90566 -0.004,-0.005 -0.0727,0.0645 -0.12465,0.10853 -0.17842,0.16134 -0.2617,0.20007 -0.47226,0.41067 -0.30544,0.30542 -0.26534,0.2812 -0.48401,0.50526 -0.22408,0.21871 -0.1999,0.17861 -0.50526,0.484 -0.27064,0.27066 -0.30109,0.34525 -0.49205,0.55659 -0.0203,0.0249 -0.0721,0.0775 -0.0741,0.0843 -0.7831,0.88122 -1.05103,1.33978 -0.63066,0.80006 -0.0274,0.0351 -0.2213,0.26425 -0.56395,0.70473 v 7.4e-4 7.4e-4 c -0.34614,0.4451 -0.48052,0.63772 -0.42315,0.56393 v 7.4e-4 c 0.16611,-0.21361 -0.16378,0.11332 -0.84479,1.08606 v 7.4e-4 c -0.90446,1.29229 -0.99915,1.52566 -0.42018,0.70033 0.65612,-0.94017 0.29527,-0.66236 -0.79861,1.05672 -1.07635,1.69146 -1.18369,2.13671 -0.61231,1.15719 0.3211,-0.55047 0.16126,-0.33762 -0.45172,0.65852 -0.38981,0.63344 -0.62428,1.07901 -0.75243,1.30679 -0.27026,0.48045 -0.51161,0.92044 -0.7311,1.31559 -0.22258,0.4006 -0.4667,0.83465 -0.726,1.30606 v 7.9e-4 c -0.45758,0.83193 -1.17272,2.06199 -1.87514,3.60724 -0.45769,1.00713 -0.68094,1.63463 -0.76925,1.83772 -0.0109,0.025 -0.35019,0.62579 -0.83965,1.87658 -0.53526,1.3678 -0.67914,1.99701 -0.61306,1.82085 0.051,-0.13604 -0.2573,0.445 -0.74946,1.81205 -0.44031,1.22292 -0.61111,1.95968 -0.67392,2.15599 -0.0636,0.19848 -0.3158,0.82832 -0.63652,1.92792 -0.34836,1.19417 -0.4548,1.80458 -0.45176,1.79372 -0.1057,0.37741 -0.26516,0.87879 -0.4664,1.50772 -0.043,0.13423 -0.31911,0.79293 -0.66439,2.02619 -0.88298,4.06365 -0.57348,2.36778 -1.38531,5.13183 -0.29928,1.02598 -0.43689,1.71751 -0.51923,2.04672 v 7.9e-4 c -0.0813,0.32503 -0.28756,1.00297 -0.50744,2.05845 v -7.9e-4 c -0.27104,1.30083 -0.32019,1.87519 -0.28306,1.69692 0.0327,-0.1571 -0.15345,0.39772 -0.42386,1.69546 -0.21949,1.05381 -0.29984,1.75067 -0.35271,2.06798 v -8e-4 c -0.0943,0.56573 -0.1889,1.13125 -0.28306,1.69619 -0.18124,1.08738 -0.2602,1.55938 -0.28892,1.73065 -4e-5,2e-4 4e-5,0.002 0,0.002 0,0.0104 -0.004,0.0126 -0.004,0.0205 0,0.004 -0.004,0.0182 -0.004,0.0205 -0.004,0.0126 -0.005,0.031 -0.007,0.0411 0,0.005 0,0.006 -0.005,0.0272 0,0.005 -0.01,0.0648 -0.0101,0.0653 0,0.002 0.006,0.0179 0.006,0.0161 0,0.006 -0.009,0.061 -0.0101,0.0682 0.6054,-3.68724 0.20677,-2.82119 -0.58673,3.66368 -0.13675,1.13955 -0.15451,1.88911 -0.18113,2.23519 v 7.9e-4 c -0.047,0.61205 -0.0937,1.22377 -0.1408,1.83626 -0.0458,0.59485 -0.0957,1.21664 -0.14372,1.86485 -0.0602,0.81249 -0.0919,1.42058 -0.12834,1.82159 0.0368,-0.40382 -0.0719,0.0444 -0.15916,1.35885 v 8e-4 0.002 c -0.0763,1.15374 -0.0206,1.69238 -0.0206,1.60891 v 3.18191 c -0.008,0.049 -0.005,0.0272 -0.0131,0.0777 2.32131,-1.76881 12.15688,4.44701 17.37094,7.15641 0.004,-0.005 -0.15311,1.02991 0.77222,-1.72038 0.0561,-0.16685 0.0671,-0.26073 0.11365,-0.41286 0.004,-0.003 0.004,-0.0112 0.007,-0.0235 0.49884,-1.638 0.49948,-2.30658 0.43486,-2.63705 0.25104,-1.8392 0.088,-2.48738 0.088,-1.80618 v -0.56539 -3.25085 c 0,-0.7386 0.0116,-0.8528 -0.0206,-0.36739 v -8e-4 c -2e-4,0.002 10e-5,-0.003 0,-0.002 -0.0364,0.55104 0.018,0.25707 0.12319,-0.90052 v -8e-4 c 0.0832,-0.91588 0.11651,-1.62884 0.15398,-2.13471 0.0427,-0.57701 0.0909,-1.18053 0.13934,-1.81059 0.0471,-0.61218 0.0945,-1.22436 0.14154,-1.83699 v -7.9e-4 c 0.0675,-0.87787 0.0924,-1.35845 0.10194,-1.43805 v -8e-4 c -0.005,0.0394 0.0832,-0.40253 0.23174,-1.33099 0.18642,-1.16515 0.26575,-1.6662 0.31385,-1.98878 0.008,-0.052 0.0192,-0.13767 0.0293,-0.2112 0.004,-0.0233 0.0139,-0.0849 0.0184,-0.11147 0.0116,-0.0471 0.058,0.0247 0.0726,-0.43339 0.0443,-0.26507 0.046,-0.27394 0.12172,-0.7282 0.0943,-0.56573 0.18819,-1.13125 0.28235,-1.69618 v -8e-4 c 0.13547,-0.81293 0.19911,-1.25492 0.21338,-1.32365 v -8e-4 c -0.0323,0.15606 0.1536,-0.39865 0.42386,-1.69618 0.2709,-1.30046 0.31956,-1.8741 0.28235,-1.69546 v -7.9e-4 c 0.0176,-0.0855 0.1396,-0.52755 0.34099,-1.33319 0.20043,-0.80146 0.30218,-1.25129 0.32929,-1.34419 -0.0327,0.11179 0.19907,-0.44018 0.56537,-1.69619 0.26999,-0.92567 0.39161,-1.31443 0.56173,-2.06945 0.0652,-0.28942 0.34081,-0.21786 0.31753,-1.57298 -0.0206,0.0767 0.14489,-0.36061 0.46272,-1.35373 v -7.9e-4 c 0.18935,-0.5917 0.4245,-1.31032 0.66442,-2.16699 0.0718,-0.25622 0.0387,-0.16614 0.0894,-0.36153 v 2.35325 2.26085 c 0,0.62191 -0.0297,1.51319 0.004,2.67151 v 8e-4 7.9e-4 c 0.0389,1.35236 0.13171,2.19799 0.14155,2.54244 0.004,0.0752 -0.089,0.97355 0.0116,2.68545 0.10179,1.73096 0.29677,2.60758 0.30067,2.65318 0.13081,1.52594 0.10784,1.25914 0.10705,1.65512 0,0.39535 0.0255,1.50022 0.18041,3.19804 0.14962,1.64574 0.25974,2.57561 0.42607,3.39384 0.16633,0.81823 0.14388,0.56599 0.36154,1.91545 0.0267,0.16405 0.0787,0.89376 0.29113,2.16845 v 0 c 0.28122,1.68735 0.68406,3.37251 0.97974,4.60457 0.10689,0.44546 0.25779,1.16493 0.54044,2.13398 0.3529,1.20989 0.59181,1.78466 0.58595,1.76511 -0.1931,-0.64335 -0.14947,-0.15237 0.36885,1.40213 0.46152,1.38421 0.77436,1.89589 0.66367,1.63019 v 7.9e-4 c 0.0285,0.0686 0.10461,0.26347 0.23245,0.58299 0.11193,0.27988 0.4863,1.31614 1.13007,2.44272 v -0.002 c 0.51229,0.89669 0.76801,1.19201 0.6226,0.97386 v 7.9e-4 c -0.20598,-0.30894 -0.0199,0.10264 0.76264,1.08093 v 0 7.9e-4 c 0.86732,1.08406 1.13048,1.22568 0.89173,0.96653 0.11988,0.13257 0.12116,0.16157 0.29259,0.33073 0.54458,0.53731 1.34773,1.35986 3.19584,2.10758 1.84762,0.74752 5.30545,0.96472 7.85249,-0.308 3.33261,-1.66585 3.66497,-3.12886 4.11395,-3.90863 0.44879,-0.77945 0.61734,-1.24916 0.68785,-1.42559 v -7.9e-4 c 0.0824,-0.20583 0.14989,-0.30967 0.374,-1.03253 0.22427,-0.72331 0.47913,-3.40301 0.31021,-4.42636 -0.16892,-1.02335 0.0638,0.28365 0.0953,0.92912 0.0315,0.64547 -0.0128,0.983 -0.0248,1.09193 v 0.005 c -0.16074,1.43946 -0.0463,1.17533 0.15256,-0.81546 v -0.002 -0.003 c 0.14557,-1.4655 0.0455,-2.01668 0.0455,-1.63386 v -0.98998 c 0,-0.74006 0.0116,-0.85619 -0.0206,-0.3674 v -7.9e-4 c -8e-5,0.001 6e-5,-0.002 0,-8e-4 -0.0364,0.55289 0.018,0.25721 0.12319,-0.90125 l 0.009,-0.0968 0.007,-0.0975 c -0.081,1.15659 0.004,-0.0493 0.0109,-0.15767 0.008,-0.1084 0.0192,-0.26327 0.0323,-0.44879 0.0267,-0.37105 0.0615,-0.86528 0.0968,-1.35959 0.0679,-0.95068 0.11493,-1.63227 0.11879,-1.68886 -0.0511,0.49986 0.29768,-1.95801 0.45172,-3.00224 0.13348,0.32813 0.29414,0.71674 0.65853,1.37279 v 8e-4 0 c 1.11122,2.00018 2.36643,3.01952 2.41487,3.0675 0.3645,0.97609 3.19564,2.49838 5.15016,3.02135 0.19303,0.0516 0.35801,0.0932 0.51404,0.13127 0.15608,0.038 -1.07066,-0.0956 1.05382,0.20899 l 0.004,8e-4 h 0.004 c 3.99944,0.28537 4.76621,-0.032 7.35815,-1.53336 -1.82994,0.39859 -1.74858,0.53802 0.009,-0.005 0.17606,-0.10124 0.32459,-0.18498 0.45762,-0.26839 -0.0199,0.0512 0,0.0773 -0.11516,0.14666 1.43123,-0.52413 1.47663,-1.05281 2.02033,-1.52312 0.38174,-0.33019 0.75585,-0.67998 1.25398,-1.31632 0.24908,-0.31817 0.53241,-0.7084 0.85579,-1.30313 0.13348,-0.24539 0.27503,-0.55927 0.41583,-0.89685 0,0.002 -0.004,0.008 -0.004,0.0102 -0.47507,1.14668 -0.76692,1.71498 -0.99588,2.09658 0.10423,-0.0891 0.11069,-0.0872 0.352,-0.30727 0.76309,-0.69579 1.27973,-1.33291 1.91107,-2.09951 1.03887,-1.26146 1.63785,-2.13467 1.94404,-2.50211 v 0 c -0.0199,0.0239 0.38451,-0.37608 1.13082,-1.27159 v -8e-4 c 0.72544,-0.87056 1.03899,-1.33107 1.02446,-1.31339 v -7.9e-4 c 0.35308,-0.42876 0.70936,-0.79281 1.06109,-1.1352 0.30826,0.19197 0.5911,0.37673 0.62628,0.3894 0.46016,0.30477 0.81426,0.53607 0.78025,0.51113 -0.584,-0.42823 -0.34982,-0.19033 0.76636,0.64679 v 0 c 1.14452,0.8583 1.9592,1.29038 2.35693,1.52899 0.23591,0.14157 0.47132,0.28294 0.70617,0.42387 v 0 c 0.23493,0.14094 0.47072,0.28216 0.70693,0.42386 -0.37438,-0.22459 0.10689,0.21853 1.65072,0.92033 v 0 c 1.46382,0.66535 2.10267,0.75513 1.76438,0.64239 0.28318,0.0944 0.56575,0.18855 0.84701,0.28233 v 7.9e-4 c 0.36255,0.12083 2.29611,0.74035 3.88444,0.87266 l 0.004,8e-4 h 0.004 c 1.30891,0.10815 1.85329,0.0315 1.62066,0.0315 h 0.98999 c -0.11903,0 0.43857,0.0637 1.66172,-0.0242 v 0 c 1.20524,-0.0866 1.75101,-0.22658 1.64337,-0.2112 -0.0989,0.0141 0.45648,-0.004 1.62871,-0.2552 1.36008,-0.29144 1.77685,-0.4744 1.29873,-0.35493 0.0432,-0.0108 0.7922,-0.11183 2.189,-0.51919 v 0 c 1.73212,-0.5053 2.21201,-0.75297 1.50407,-0.55074 v 0 c -0.63856,0.18247 -0.35252,0.12658 0.87043,-0.1452 0.60555,-0.13453 1.10841,-0.26814 1.51361,-0.37619 0.67178,-0.17918 0.98886,-0.28262 0.95991,-0.275 v 8e-4 c 0.2852,-0.0751 0.88384,-0.20212 1.77756,-0.44587 0.92424,-0.25208 0.84502,-0.2501 0.74285,-0.24053 0.12759,-0.0182 0.19104,-0.0288 0.49427,-0.0667 0.32672,-0.0408 0.72986,-0.0873 1.20779,-0.15106 v 0 c 0.91256,-0.12171 1.03797,-0.12429 0.37253,-0.0799 v 0 0 c -0.45735,0.0306 -0.29076,0.0205 0.5038,0.0205 h 1.13082 c 0.78971,0 1.03065,0.003 0.72379,-0.0154 v 0 c -0.48988,-0.0286 -0.2955,-0.01 0.58155,0.0931 v -8e-4 c 0.37981,0.0447 0.88511,0.10958 1.51946,0.1672 0.82425,0.0749 1.46052,0.11022 1.90665,0.1474 v 0 c 1.07333,0.0894 1.48244,0.12996 2.50944,0.2508 0.33833,0.0398 0.66743,0.0813 0.98706,0.12393 v -7.9e-4 c -0.25182,-0.0336 0.27694,0.11434 1.6038,0.20313 1.62624,0.10879 2.00511,0.0585 1.13078,0 -1.06913,-0.071 -0.74646,0.0258 0.98923,0.14153 1.62628,0.10878 2.00513,0.0585 1.13082,0 v 0 0 c -1.04296,-0.0695 -0.72198,0.0185 0.94012,0.13787 1.22431,0.088 1.78158,0.0242 1.66248,0.0242 -0.11898,0 0.43896,0.0635 1.66098,-0.0242 0.74296,-0.0532 0.28201,-0.0356 0.48104,-0.0667 0.17605,0.002 0.60191,-0.0162 1.40799,-0.0785 1.07326,-0.0829 1.63372,-0.21304 1.69327,-0.2222 v 0 c 0.48018,-0.0739 0.10719,0.17443 2.59671,-0.50453 0.35594,-0.0971 1.57207,-0.34658 2.0709,-0.43633 0.12469,-0.0224 0.18372,-0.0329 0.28306,-0.0506 0.0248,-0.004 0,0.002 0.18702,-0.0352 0.047,-0.009 0.0849,-0.0138 0.30431,-0.0645 0.10972,-0.0254 0.77725,-0.21558 0.77733,-0.2156 0,-3e-5 -1.10436,-18.14619 -1.10439,-18.14619 -4e-5,-1e-5 -2.35176,-0.15634 -2.55053,-0.14007 -0.19877,0.0162 -0.27303,0.0263 -0.33585,0.0337 -0.12559,0.0148 -0.16445,0.0207 -0.2002,0.0257 -0.28595,0.04 -0.18404,0.0276 -0.23245,0.0352 -0.19358,0.0303 -0.62796,0.0987 -1.51432,0.23246 l 0.0116,0.0763 c -0.74837,0.13994 -1.48026,0.25817 -2.63632,0.57346 1.89944,-0.51802 -0.43156,0.0437 -0.49279,0.0572 -0.23681,0.007 -0.49254,0.0132 -1.1484,0.0638 -1.58637,0.12193 -1.89398,0.2053 -0.93644,0.13714 l -0.004,7.9e-4 h -0.004 c 0.56639,-0.0407 0.46258,-0.0242 -0.31606,-0.0242 -0.77864,0 -0.88249,-0.0165 -0.31607,0.0242 h -0.004 -0.004 c 1.01604,0.0726 0.67159,-0.0306 -1.03177,-0.14447 -1.6264,-0.1088 -2.0042,-0.0585 -1.13008,0 1.06677,0.0707 0.74451,-0.0258 -0.98998,-0.14153 -1.62639,-0.1088 -2.00419,-0.0585 -1.13004,0 v 0 0 c 0.6648,0.0444 0.53917,0.0418 -0.37324,-0.0799 v 0 c -0.43344,-0.0578 -0.85846,-0.11018 -1.27455,-0.15913 -1.15294,-0.13565 -1.96394,-0.21631 -3.14376,-0.3146 v 0 c -0.77763,-0.0648 -1.36752,-0.0994 -1.76659,-0.13566 v 0 c -0.21544,-0.0196 -0.55621,-0.0601 -1.02374,-0.11514 v 0 c 0.12247,0.0144 -0.43268,-0.11696 -1.67859,-0.18993 v 0 c -1.15166,-0.0673 -1.76115,-0.0161 -1.81938,-0.0161 h -1.13083 c 0.0408,0 -0.54753,-0.0596 -1.75701,0.0213 -1.32629,0.0887 -1.85558,0.23671 -1.6038,0.20313 v -7.9e-4 c -0.27498,0.0367 -0.62672,0.0787 -1.05377,0.132 v 0 c 0.20797,-0.026 -0.48135,-0.0455 -2.00272,0.29259 v -7.9e-4 c -1.52266,0.33828 -2.11694,0.60502 -1.84801,0.53167 -0.23071,0.0629 -0.77292,0.18103 -1.61479,0.40259 -0.69228,0.18221 -1.02835,0.29281 -1.0193,0.2904 -0.34509,0.092 -0.59451,0.15526 -0.74725,0.1892 v 0 c 0.2849,-0.0633 -0.39406,-0.0263 -1.95651,0.4202 -6.71884,3.31212 -6.6062,-1.32819 -15.27318,-4.63608 v -8e-4 c -0.0523,-0.0209 -0.44868,-0.18514 -0.90494,-0.36006 -0.45642,-0.17499 -0.42244,-0.35505 -2.45445,-0.72453 -0.49429,-0.0899 -0.50484,-0.0591 -0.86604,-0.11073 0.45228,-0.009 0.21859,-0.017 -0.70107,-0.0887 -0.67174,-0.0687 -0.84351,-0.10459 -0.55073,-0.0337 -0.40061,-0.0184 -0.41774,-0.0601 -0.97605,-0.0601 -2.09291,0 -1.5777,0.12335 -1.84285,0.16793 -0.26519,0.0446 -0.48127,0.0852 -0.69007,0.1254 -0.41759,0.0804 -0.84941,0.16886 -0.86311,0.1716 0.34088,-0.0682 -0.20673,-0.0515 -1.56201,0.35493 v 0 c -1.58051,0.47418 -3.31725,1.51149 -3.54561,1.64852 -0.70632,0.42381 -1.78064,1.1626 -2.52777,1.77392 v 0 c -0.11182,0.0915 -0.56958,0.42379 -1.28991,1.09266 v 0 c -0.58805,0.54606 -1.06707,1.12937 -1.5935,1.69765 -0.0706,-0.30278 -0.0188,-0.30662 -0.40554,-1.27306 v -7.9e-4 c -0.58136,-1.45297 -1.02268,-2.11788 -1.02595,-2.12439 v -8e-4 c -0.16171,-0.32335 -0.4168,-0.87668 -0.81986,-1.63238 -0.50459,-0.94602 -1.00418,-1.79678 -2.00348,-2.96265 v -0.002 c -0.0928,-0.10857 -0.64121,-0.9145 -2.09366,-1.95211 v 0 -7.9e-4 c -1.23632,-0.88303 -2.20055,-1.23632 -2.72286,-1.4322 -1.64866,-0.61875 -3.4275,-0.978 -5.75661,-0.64533 -1.86174,0.2659 -2.71967,0.77408 -2.79397,0.80592 -0.99138,0.4249 -2.83611,1.65334 -3.06533,1.82527 -0.39104,0.29332 -0.8909,0.76212 -1.37573,1.19826 v -1.0387 c 0,-0.95015 -0.0165,-1.60601 -0.005,-1.96679 v -7.9e-4 c 0.006,-0.17675 0.0986,-0.9251 0.14151,-2.25059 v -7.9e-4 c 0.036,-1.11118 0.005,-1.92002 0.005,-2.42365 v -6.50036 -2.12005 c 0,-0.42801 0.0357,-1.20422 -0.006,-2.32612 -0.0418,-1.12793 -0.13615,-1.8535 -0.1606,-2.18311 v -7.9e-4 c -0.0282,-0.38174 -0.0446,-1.15933 -0.1738,-2.32172 v 7.9e-4 c -0.13385,-1.20507 -0.28828,-1.90872 -0.31971,-2.12885 -0.0312,-0.2184 -0.024,-0.17055 -0.0425,-0.30726 0.006,0.0986 -0.0165,0.42803 -0.0285,0.67759 0.004,-0.37291 0.009,-0.74943 0.009,-0.74946 0,-3e-5 -0.009,-0.10178 -0.0154,-0.17967 0,-0.006 -0.004,-0.0262 -0.005,-0.0315 0,0.001 0,0.005 0.004,0.007 -0.007,-0.0867 -0.0116,-0.15189 -0.0161,-0.19286 -0.0716,-0.67554 -0.0616,-0.46775 -0.0682,-0.50893 -0.0131,-0.0824 -0.0139,-0.0876 -0.0184,-0.11367 -0.0176,-0.10442 -0.0507,-0.29788 -0.13347,-0.79492 0.0568,0.34078 0.0631,-0.27939 -0.34467,-1.77465 -0.44119,-1.61755 -0.79123,-2.14375 -0.62333,-1.72257 v -7.4e-4 c -0.21537,-0.53845 -1.20581,-2.45362 -1.47021,-2.85036 v -7.5e-4 c 0.18469,0.27698 -0.0255,-0.076 -0.42679,-0.63579 -0.40137,-0.56015 -0.78652,-1.5133 -3.11883,-2.91278 v 0 c -1.20422,-0.72243 -3.13854,-1.32425 -4.38087,-1.43877 -1.24252,-0.11455 -1.54188,-0.0403 -1.29655,-0.0403 0.44391,0 0.49448,-0.0586 0.1628,-0.0719 z m 11.70831,14.6636 c 371.49347,-7.91993 185.74673,-3.95996 0,0 z M 72.36968,162.05 c -0.0524,0.35682 -0.12901,0.45089 -0.14666,0.53533 -0.0349,0.16661 0.0908,-0.31829 0.14666,-0.53533 z m 110.36724,2.48231 c 0.007,-7.9e-4 -0.0128,0.002 -0.005,0.002 h -0.004 c 0.006,-2.6e-4 0,-0.001 0.008,-0.002 z m -52.99538,13.99042 c 0.005,-7.9e-4 0.0349,0.0333 -0.32046,0.0609 0.0233,-0.004 0.0427,-0.009 0.066,-0.0132 0.12856,-0.0247 0.24709,-0.0464 0.25445,-0.0477 z m -9.13503,9.83319 c -0.36498,0.39997 -0.28816,0.29097 -0.0667,0.088 0.0485,-0.0444 0.0626,-0.0539 0.10047,-0.088 -0.0109,0.004 -0.0222,-0.0127 -0.0338,0 z m -2.87098,2.36425 c -0.0547,0.0317 -0.21837,0.0737 -0.30874,0.10927 0.11602,-0.0366 0.20763,-0.0726 0.30874,-0.10927 z"
       id="path4535-3-61"
       inkscape:connector-curvature="0"
       sodipodi:nodetypes="ccccccccccccccccccccccccccccccccccccccccccccccccccccccscccccccccccccccccccccccccsccccccccccccccccccccccccccccccccccsccccccccscccccccccccccccccccccscccscccccccsccccccccccccccccccccccccccccccccccccccccccccccccccccccccccccccccccccccccccccccsscccccccccccccccccscccccccccccsccccccccccccsccccccccccccccccccccscccccccccccccccccccccscsccccccccccccccccccccccccsccccscsccccccccsccccccccccccccccsccccccccccccccccccccacccc" />
    <path
       style="color:#000000;font-style:normal;font-variant:normal;font-weight:normal;font-stretch:normal;font-size:medium;line-height:normal;font-family:sans-serif;font-variant-ligatures:normal;font-variant-position:normal;font-variant-caps:normal;font-variant-numeric:normal;font-variant-alternates:normal;font-feature-settings:normal;text-indent:0;text-align:start;text-decoration:none;text-decoration-line:none;text-decoration-style:solid;text-decoration-color:#000000;letter-spacing:normal;word-spacing:normal;text-transform:none;writing-mode:lr-tb;direction:ltr;text-orientation:mixed;dominant-baseline:auto;baseline-shift:baseline;text-anchor:start;white-space:normal;shape-padding:0;clip-rule:nonzero;display:inline;overflow:visible;visibility:visible;opacity:1;isolation:auto;mix-blend-mode:normal;color-interpolation:sRGB;color-interpolation-filters:linearRGB;solid-color:#000000;solid-opacity:1;vector-effect:none;fill:#fff8ff;fill-opacity:1;fill-rule:nonzero;stroke:none;stroke-width:18.77318382;stroke-linecap:butt;stroke-linejoin:miter;stroke-miterlimit:4;stroke-dasharray:none;stroke-dashoffset:0;stroke-opacity:1;color-rendering:auto;image-rendering:auto;shape-rendering:auto;text-rendering:auto;enable-background:accumulate"
       d="m 78.56936,115.01115 c -0.33164,-0.0133 -1.04552,0.0186 -2.13031,0.19946 -0.84606,0.14105 -1.27684,0.27525 -1.63019,0.38793 -0.027,-7.5e-4 -0.0766,0.0107 -0.19287,0.0462 -0.24078,0.0834 -0.37625,0.13383 -0.30724,0.13053 -0.325,0.11433 -0.69183,0.24178 -1.37135,0.58153 v 0 c -1.5403,0.77024 -1.93731,1.20456 -1.43292,0.86826 0.0248,-0.0166 -0.20747,0.12199 -0.6732,0.45467 0.23185,-0.1656 -0.30518,0.16248 -1.14986,0.90566 -0.004,-0.005 -0.0727,0.0645 -0.12465,0.10853 -0.17842,0.16134 -0.2617,0.20006 -0.47226,0.41066 -0.30544,0.30543 -0.26534,0.2812 -0.48401,0.50526 -0.22408,0.21871 -0.1999,0.17861 -0.50526,0.484 -0.27064,0.27066 -0.30109,0.34526 -0.49205,0.5566 -0.0203,0.0249 -0.0721,0.0775 -0.0741,0.0843 -0.7831,0.88122 -1.05103,1.33978 -0.63066,0.80006 -0.0274,0.0351 -0.2213,0.26424 -0.56395,0.70472 v 7.6e-4 7.5e-4 c -0.34614,0.44509 -0.48052,0.63772 -0.42315,0.56392 v 7.5e-4 c 0.16611,-0.2136 -0.16378,0.11333 -0.84479,1.08606 v 7.5e-4 c -0.90446,1.2923 -0.99915,1.52567 -0.42018,0.70033 0.65612,-0.94016 0.29527,-0.66236 -0.79861,1.05673 -1.07635,1.69147 -1.18369,2.13672 -0.61231,1.15719 0.3211,-0.55047 0.16126,-0.33762 -0.45172,0.65853 -0.38981,0.63343 -0.62428,1.079 -0.75243,1.30679 -0.27026,0.48045 -0.51161,0.92044 -0.7311,1.31559 -0.22258,0.4006 -0.4667,0.83465 -0.726,1.30605 v 7.9e-4 c -0.45758,0.83194 -1.17272,2.06199 -1.87514,3.60724 -0.45769,1.00713 -0.68094,1.63463 -0.76925,1.83772 -0.0109,0.025 -0.35019,0.62579 -0.83965,1.87658 -0.53526,1.3678 -0.67914,1.99701 -0.61306,1.82086 0.051,-0.13605 -0.2573,0.44499 -0.74946,1.81205 -0.44031,1.22291 -0.61111,1.95967 -0.67392,2.15598 -0.0636,0.19849 -0.3158,0.82832 -0.63652,1.92792 -0.34836,1.19417 -0.4548,1.80458 -0.45176,1.79372 -0.1057,0.37741 -0.26516,0.87879 -0.4664,1.50772 -0.043,0.13424 -0.31911,0.79294 -0.66439,2.02618 -0.88298,4.06365 -0.57348,2.36778 -1.38531,5.13183 -0.29928,1.02598 -0.43689,1.71751 -0.51923,2.04672 v 7.5e-4 c -0.0813,0.32503 -0.28756,1.00297 -0.50744,2.05845 v -7.5e-4 c -0.27104,1.30083 -0.32019,1.87519 -0.28306,1.69692 0.0327,-0.1571 -0.15345,0.39772 -0.42386,1.69546 -0.21949,1.05381 -0.29984,1.75067 -0.35271,2.06798 v -7.5e-4 c -0.0943,0.56573 -0.1889,1.13125 -0.28306,1.69618 -0.18124,1.08739 -0.2602,1.55938 -0.28892,1.73066 -4e-5,1.9e-4 4e-5,0.001 0,0.001 0,0.0103 -0.004,0.0126 -0.004,0.0205 0,0.004 -0.004,0.0181 -0.004,0.0205 -0.004,0.0126 -0.005,0.031 -0.007,0.0411 0,0.005 0,0.006 -0.005,0.0272 0,0.005 -0.01,0.0648 -0.0101,0.0653 0,0.002 0.006,0.0179 0.006,0.0161 0,0.006 -0.009,0.061 -0.0101,0.0682 0.6054,-3.68725 0.20677,-2.82119 -0.58673,3.66368 -0.13675,1.13954 -0.15451,1.8891 -0.18113,2.23519 v 7.5e-4 c -0.047,0.61205 -0.0937,1.22377 -0.1408,1.83625 -0.0458,0.59485 -0.0957,1.21664 -0.14372,1.86485 -0.0602,0.81249 -0.0919,1.42058 -0.12834,1.82159 0.0368,-0.40381 -0.0719,0.0444 -0.15916,1.35886 v 7.5e-4 0.001 c -0.0763,1.15374 -0.0206,1.69238 -0.0206,1.60892 v 3.1819 c -0.008,0.049 -0.005,0.0272 -0.0131,0.0777 2.32131,-1.76879 12.15688,4.44704 17.37094,7.15645 0.004,-0.005 -0.15311,1.0299 0.77222,-1.72039 0.0561,-0.16685 0.0671,-0.26073 0.11365,-0.41286 0.004,-0.003 0.004,-0.0112 0.007,-0.0235 0.49884,-1.638 0.49948,-2.30658 0.43486,-2.63705 0.25104,-1.8392 0.088,-2.48739 0.088,-1.80618 v -0.5654 -3.25084 c 0,-0.7386 0.0116,-0.8528 -0.0206,-0.3674 v -7.5e-4 c -2e-4,0.002 1e-4,-0.003 0,-0.001 -0.0364,0.55104 0.018,0.25707 0.12319,-0.90053 v -7.5e-4 c 0.0832,-0.91588 0.11651,-1.62884 0.15398,-2.13471 0.0427,-0.57701 0.0909,-1.18053 0.13934,-1.81059 0.0471,-0.61218 0.0945,-1.22436 0.14154,-1.83698 v -7.5e-4 c 0.0675,-0.87787 0.0924,-1.35845 0.10194,-1.43806 v -7.5e-4 c -0.005,0.0394 0.0832,-0.40253 0.23174,-1.33099 0.18642,-1.16515 0.26575,-1.6662 0.31385,-1.98878 0.008,-0.052 0.0192,-0.13767 0.0293,-0.2112 0.004,-0.0233 0.0139,-0.0849 0.0184,-0.11147 0.0116,-0.0471 0.058,0.0247 0.0726,-0.4334 0.0443,-0.26506 0.046,-0.27393 0.12172,-0.72819 0.0943,-0.56573 0.18819,-1.13125 0.28235,-1.69619 v -7.5e-4 c 0.13547,-0.81292 0.19911,-1.25492 0.21338,-1.32365 v -7.5e-4 c -0.0323,0.15605 0.1536,-0.39866 0.42386,-1.69619 0.2709,-1.30046 0.31956,-1.87409 0.28235,-1.69545 v -7.5e-4 c 0.0176,-0.0855 0.1396,-0.52755 0.34099,-1.33319 0.20043,-0.80146 0.30218,-1.25129 0.32929,-1.34419 -0.0327,0.11178 0.19907,-0.44018 0.56537,-1.69619 0.26999,-0.92567 0.39161,-1.31443 0.56173,-2.06945 0.0652,-0.28942 0.34081,-0.21786 0.31753,-1.57299 -0.0206,0.0767 0.14489,-0.3606 0.46272,-1.35372 v -7.5e-4 c 0.18935,-0.5917 0.4245,-1.31032 0.66442,-2.16699 0.0718,-0.25622 0.0387,-0.16613 0.0894,-0.36153 v 2.35325 2.26085 c 0,0.62191 -0.0297,1.51319 0.004,2.67151 v 7.6e-4 7.5e-4 c 0.0389,1.35236 0.13171,2.19799 0.14155,2.54244 0.004,0.0752 -0.089,0.97355 0.0116,2.68545 0.10179,1.73095 0.29677,2.60758 0.30067,2.65318 0.13081,1.52594 0.10784,1.25913 0.10705,1.65511 0,0.39535 0.0255,1.50022 0.18041,3.19805 0.14962,1.64573 0.25974,2.5756 0.42607,3.39384 0.16633,0.81823 0.14388,0.56598 0.36154,1.91545 0.0267,0.16404 0.0787,0.89376 0.29113,2.16845 v 0 c 0.28122,1.68734 0.68406,3.3725 0.97974,4.60456 0.10689,0.44547 0.25779,1.16493 0.54044,2.13398 0.3529,1.20989 0.59181,1.78467 0.58595,1.76512 -0.1931,-0.64336 -0.14947,-0.15237 0.36885,1.40213 0.46152,1.38421 0.77436,1.89588 0.66367,1.63018 v 7.5e-4 c 0.0285,0.0686 0.10461,0.26348 0.23245,0.583 0.11193,0.27987 0.4863,1.31613 1.13007,2.44271 v -0.001 c 0.51229,0.8967 0.76801,1.19201 0.6226,0.97386 v 7.5e-4 c -0.20598,-0.30894 -0.0199,0.10264 0.76264,1.08093 v 0 7.5e-4 c 0.86732,1.08406 1.13048,1.22568 0.89173,0.96653 0.11988,0.13256 0.12116,0.16157 0.29259,0.33073 0.54458,0.53731 1.34773,1.35985 3.19584,2.10758 1.84762,0.74752 5.30545,0.96472 7.85249,-0.308 3.33261,-1.66585 3.66497,-3.12886 4.11395,-3.90863 0.44879,-0.77945 0.61734,-1.24916 0.68785,-1.42559 v -7.5e-4 c 0.0824,-0.20583 0.14989,-0.30967 0.374,-1.03253 0.22427,-0.72331 0.47913,-3.40301 0.31021,-4.42636 -0.16892,-1.02335 0.0638,0.28366 0.0953,0.92913 0.0315,0.64546 -0.0128,0.98299 -0.0248,1.09192 v 0.005 c -0.16074,1.43946 -0.0463,1.17534 0.15255,-0.81546 v -0.002 -0.003 c 0.14557,-1.4655 0.0455,-2.01668 0.0455,-1.63386 v -0.98998 c 0,-0.74007 0.0116,-0.85619 -0.0206,-0.3674 v -7.5e-4 c -8e-5,0.001 7e-5,-0.002 0,-7.5e-4 -0.0364,0.55288 0.018,0.2572 0.12319,-0.90126 l 0.009,-0.0968 0.007,-0.0975 c -0.081,1.15659 0.004,-0.0493 0.0109,-0.15767 0.008,-0.1084 0.0192,-0.26327 0.0323,-0.44879 0.0267,-0.37105 0.0615,-0.86528 0.0968,-1.35959 0.0679,-0.95068 0.11493,-1.63227 0.1188,-1.68886 -0.0511,0.49986 0.29767,-1.95801 0.45172,-3.00224 0.13348,0.32813 0.29414,0.71674 0.65853,1.37279 v 7.5e-4 0 c 1.11122,2.00019 2.36643,3.01953 2.41487,3.06751 0.3645,0.97609 3.19564,2.49838 5.15016,3.02135 0.19302,0.0516 0.358,0.0933 0.51404,0.13126 0.15608,0.038 -1.07067,-0.0956 1.05382,0.209 l 0.004,7.5e-4 h 0.004 c 3.99944,0.28537 4.76621,-0.0319 7.35815,-1.53335 -1.82994,0.39858 -1.74858,0.53802 0.009,-0.005 0.17606,-0.10124 0.32459,-0.18499 0.45762,-0.2684 -0.0199,0.0512 0,0.0773 -0.11516,0.14666 1.43123,-0.52413 1.47663,-1.05281 2.02033,-1.52312 0.38174,-0.33018 0.75585,-0.67997 1.25398,-1.31632 0.24908,-0.31817 0.53241,-0.7084 0.85579,-1.30312 0.13348,-0.2454 0.27503,-0.55928 0.41583,-0.89686 0,0.002 -0.004,0.008 -0.004,0.0103 -0.47507,1.14668 -0.76692,1.71498 -0.99588,2.09659 0.10423,-0.0891 0.11069,-0.0872 0.352,-0.30727 0.76309,-0.6958 1.27973,-1.33291 1.91107,-2.09952 1.03887,-1.26145 1.63785,-2.13467 1.94404,-2.50211 v 0 c -0.0199,0.0239 0.38451,-0.37608 1.13082,-1.27159 v -7.5e-4 c 0.72544,-0.87056 1.03899,-1.33107 1.02446,-1.31339 v -7.5e-4 c 0.35308,-0.42876 0.70936,-0.79281 1.06109,-1.13519 0.30826,0.19196 0.5911,0.37672 0.62628,0.38939 0.46016,0.30477 0.81426,0.53607 0.78025,0.51113 -0.584,-0.42823 -0.34982,-0.19033 0.76636,0.6468 v 0 c 1.14452,0.85829 1.9592,1.29037 2.35693,1.52898 0.23591,0.14157 0.47132,0.28294 0.70617,0.42387 v 0 c 0.23493,0.14094 0.47072,0.28216 0.70693,0.42386 -0.37438,-0.22459 0.10689,0.21853 1.65072,0.92033 v 0 c 1.46382,0.66535 2.10267,0.75512 1.76438,0.64239 0.28318,0.0944 0.56575,0.18855 0.84701,0.28233 v 7.5e-4 c 0.36255,0.12083 2.29611,0.74035 3.88444,0.87266 l 0.004,7.5e-4 h 0.004 c 1.30891,0.10816 1.85329,0.0315 1.62066,0.0315 h 0.98998 c -0.11902,0 0.43858,0.0637 1.66173,-0.0242 v 0 c 1.20524,-0.0866 1.75101,-0.22657 1.64336,-0.2112 -0.0989,0.0141 0.45649,-0.004 1.62872,-0.25519 1.36008,-0.29144 1.77685,-0.47441 1.29873,-0.35493 0.0432,-0.0108 0.7922,-0.11183 2.189,-0.5192 v 0 c 1.73212,-0.5053 2.21201,-0.75297 1.50407,-0.55073 v 0 c -0.63856,0.18247 -0.35252,0.12657 0.87043,-0.1452 0.60555,-0.13453 1.10841,-0.26814 1.51361,-0.37619 0.67178,-0.17918 0.98886,-0.28262 0.95991,-0.275 v 7.5e-4 c 0.2852,-0.0751 0.88384,-0.20211 1.77756,-0.44586 0.92424,-0.25209 0.84502,-0.25011 0.74285,-0.24054 0.12759,-0.0182 0.19104,-0.0288 0.49427,-0.0667 0.32672,-0.0408 0.72986,-0.0873 1.20779,-0.15106 v 0 c 0.91256,-0.12171 1.03797,-0.12428 0.37253,-0.0799 v 0 0 c -0.45735,0.0306 -0.29076,0.0205 0.5038,0.0205 h 1.13082 c 0.78971,0 1.03065,0.003 0.72379,-0.0154 v 0 c -0.48988,-0.0286 -0.2955,-0.0101 0.58155,0.0931 v -7.5e-4 c 0.37981,0.0447 0.88511,0.10957 1.51946,0.1672 0.82425,0.0749 1.46052,0.11021 1.90665,0.1474 v 0 c 1.07333,0.0894 1.48244,0.12996 2.50944,0.25079 0.33833,0.0398 0.66743,0.0813 0.98706,0.12394 v -7.5e-4 c -0.25182,-0.0336 0.27694,0.11434 1.6038,0.20313 1.62624,0.10878 2.00511,0.0585 1.13078,0 -1.06913,-0.071 -0.74646,0.0258 0.98923,0.14153 1.62628,0.10878 2.00513,0.0585 1.13082,0 v 0 0 c -1.04296,-0.0695 -0.72198,0.0186 0.94012,0.13786 1.22431,0.088 1.78158,0.0242 1.66248,0.0242 -0.11898,0 0.43896,0.0635 1.66098,-0.0242 0.74296,-0.0532 0.28201,-0.0356 0.48104,-0.0667 0.17605,0.001 0.60191,-0.0162 1.40799,-0.0785 1.07326,-0.0829 1.63372,-0.21303 1.69327,-0.2222 v 0 c 0.48018,-0.0739 0.10719,0.17444 2.59671,-0.50453 0.35594,-0.0971 1.57207,-0.34658 2.0709,-0.43633 0.12469,-0.0224 0.18372,-0.0329 0.28306,-0.0506 0.0248,-0.004 0,0.002 0.18702,-0.0352 0.047,-0.009 0.0849,-0.0138 0.30431,-0.0645 0.10972,-0.0253 0.77725,-0.21557 0.77733,-0.21559 0,-4e-5 -1.10436,-18.14619 -1.10439,-18.14619 -4e-5,-2e-5 -2.35176,-0.15635 -2.55053,-0.14007 -0.19877,0.0163 -0.27303,0.0263 -0.33585,0.0337 -0.12559,0.0148 -0.16445,0.0207 -0.2002,0.0257 -0.28595,0.04 -0.18404,0.0276 -0.23245,0.0352 -0.19358,0.0303 -0.62796,0.0987 -1.51432,0.23246 l 0.0116,0.0763 c -0.74837,0.13994 -1.48026,0.25817 -2.63632,0.57346 1.89944,-0.51802 -0.43156,0.0437 -0.49279,0.0572 -0.23681,0.007 -0.49254,0.0132 -1.1484,0.0638 -1.58637,0.12194 -1.89398,0.2053 -0.93644,0.13714 l -0.004,7.5e-4 h -0.004 c 0.56639,-0.0407 0.46258,-0.0242 -0.31606,-0.0242 -0.77864,0 -0.88249,-0.0165 -0.31607,0.0242 h -0.004 -0.004 c 1.01604,0.0726 0.67159,-0.0306 -1.03177,-0.14447 -1.6264,-0.1088 -2.0042,-0.0585 -1.13008,0 1.06677,0.0707 0.74451,-0.0258 -0.98998,-0.14153 -1.62639,-0.1088 -2.00419,-0.0585 -1.13004,0 v 0 0 c 0.6648,0.0444 0.53917,0.0418 -0.37324,-0.0799 v 0 c -0.43344,-0.0578 -0.85846,-0.11018 -1.27455,-0.15913 -1.15294,-0.13565 -1.96394,-0.21631 -3.14376,-0.3146 v 0 c -0.77763,-0.0648 -1.36752,-0.0994 -1.76659,-0.13566 v 0 c -0.21544,-0.0196 -0.55621,-0.0601 -1.02374,-0.11514 v 0 c 0.12247,0.0144 -0.43268,-0.11696 -1.67859,-0.18993 v 0 c -1.15166,-0.0673 -1.76115,-0.0161 -1.81938,-0.0161 h -1.13083 c 0.0408,0 -0.54753,-0.0596 -1.75701,0.0212 -1.32629,0.0887 -1.85558,0.23671 -1.6038,0.20313 v -7.5e-4 c -0.27498,0.0367 -0.62672,0.0787 -1.05377,0.132 v 0 c 0.20797,-0.026 -0.48135,-0.0455 -2.00272,0.2926 v -7.5e-4 c -1.52266,0.33827 -2.11694,0.60502 -1.84801,0.53166 -0.23071,0.0629 -0.77292,0.18104 -1.61479,0.4026 -0.69228,0.18221 -1.02835,0.29281 -1.0193,0.2904 -0.34509,0.092 -0.59451,0.15526 -0.74725,0.1892 v 0 c 0.2849,-0.0633 -0.39406,-0.0263 -1.95651,0.42019 -6.71884,3.31213 -6.6062,-1.32818 -15.27318,-4.63608 v -7.5e-4 c -0.0523,-0.0209 -0.44868,-0.18514 -0.90494,-0.36006 -0.45642,-0.17499 -0.42244,-0.35505 -2.45445,-0.72453 -0.49429,-0.0899 -0.50484,-0.0591 -0.86604,-0.11073 0.45228,-0.009 0.21859,-0.017 -0.70107,-0.0887 -0.67174,-0.0687 -0.84351,-0.10459 -0.55073,-0.0337 -0.40061,-0.0184 -0.41774,-0.0601 -0.97605,-0.0601 -2.09291,0 -1.5777,0.12335 -1.84285,0.16793 -0.26519,0.0446 -0.48127,0.0852 -0.69007,0.1254 -0.41759,0.0804 -0.84941,0.16885 -0.86311,0.1716 0.34088,-0.0682 -0.20673,-0.0515 -1.56201,0.35493 v 0 c -1.58051,0.47418 -3.31725,1.51149 -3.54561,1.64852 -0.70632,0.42381 -1.78064,1.1626 -2.52777,1.77392 v 0 c -0.11182,0.0915 -0.56958,0.42379 -1.28991,1.09266 v 0 c -0.58805,0.54606 -1.06707,1.12937 -1.5935,1.69765 -0.0706,-0.30278 -0.0188,-0.30662 -0.40554,-1.27306 v -7.5e-4 c -0.58133,-1.45303 -1.02265,-2.11793 -1.02592,-2.12445 v -7.5e-4 c -0.16171,-0.32335 -0.4168,-0.87668 -0.81986,-1.63238 -0.50459,-0.94602 -1.00418,-1.79678 -2.00348,-2.96265 v -0.001 c -0.0928,-0.10857 -0.64121,-0.9145 -2.09366,-1.95211 v 0 -7.9e-4 c -1.23632,-0.88303 -2.20055,-1.23631 -2.72286,-1.43219 -1.64866,-0.61875 -3.4275,-0.97799 -5.75661,-0.64533 -1.86174,0.2659 -2.71967,0.77408 -2.79397,0.80593 -0.99138,0.42488 -2.83611,1.65332 -3.06533,1.82525 -0.39104,0.29333 -0.8909,0.76213 -1.37573,1.19826 v -1.03869 c 0,-0.95015 -0.0165,-1.60601 -0.005,-1.96679 v -7.8e-4 c 0.006,-0.17675 0.0986,-0.9251 0.14151,-2.25059 v -7.9e-4 c 0.036,-1.11118 0.005,-1.92001 0.005,-2.42365 v -6.50094 -2.12005 c 0,-0.42801 0.0357,-1.20423 -0.006,-2.32612 -0.0418,-1.12793 -0.13614,-1.85351 -0.16059,-2.18311 v -7.9e-4 c -0.0282,-0.38174 -0.0446,-1.15933 -0.1738,-2.32172 v 7.9e-4 c -0.13385,-1.20507 -0.28828,-1.90873 -0.31971,-2.12885 -0.0312,-0.2184 -0.024,-0.17055 -0.0425,-0.30726 0.006,0.0986 -0.0165,0.42803 -0.0285,0.67759 0.004,-0.37291 0.009,-0.74943 0.009,-0.74946 0,-3e-5 -0.009,-0.10178 -0.0154,-0.17967 0,-0.006 -0.004,-0.0262 -0.005,-0.0315 0,0.001 0,0.005 0.004,0.007 -0.007,-0.0867 -0.0116,-0.15189 -0.0161,-0.19286 -0.0716,-0.67556 -0.0616,-0.46775 -0.0682,-0.50893 -0.0131,-0.0824 -0.0139,-0.0876 -0.0184,-0.11367 -0.0176,-0.10444 -0.0507,-0.29789 -0.13347,-0.79493 0.0568,0.34077 0.0631,-0.27939 -0.34468,-1.77465 -0.44117,-1.61756 -0.79121,-2.14377 -0.62331,-1.72259 v -7.5e-4 c -0.21542,-0.53844 -1.20586,-2.45361 -1.47026,-2.85035 v -7.5e-4 c 0.18469,0.27698 -0.0255,-0.076 -0.42679,-0.6358 -0.40137,-0.56015 -0.78652,-1.51329 -3.11883,-2.91277 v 0 c -1.20422,-0.72244 -3.13854,-1.32426 -4.38087,-1.43878 -1.24252,-0.11455 -1.54188,-0.0403 -1.29655,-0.0403 0.44391,0 0.49448,-0.0586 0.1628,-0.0719 z m 11.70831,14.66361 c 371.49345,-7.91993 185.74673,-3.95996 0,0 z m -19.4955,27.61345 c -0.0524,0.35683 -0.12901,0.4509 -0.14666,0.53533 -0.0349,0.16661 0.0908,-0.31828 0.14666,-0.53533 z m 110.36724,2.48232 c 0.007,-7.5e-4 -0.0128,0.002 -0.005,0.001 h -0.004 c 0.006,-3.8e-4 0,-0.001 0.008,-0.001 z m -52.99538,13.99042 c 0.005,-7.5e-4 0.0349,0.0333 -0.32046,0.0609 0.0233,-0.005 0.0427,-0.009 0.066,-0.0132 0.12856,-0.0247 0.24709,-0.0464 0.25445,-0.0477 z m -9.13503,9.83319 c -0.36498,0.39997 -0.28816,0.29097 -0.0667,0.088 0.0485,-0.0444 0.0626,-0.0539 0.10047,-0.088 -0.0109,0.004 -0.0222,-0.0127 -0.0338,0 z m -2.87098,2.36425 c -0.0547,0.0317 -0.21837,0.0737 -0.30874,0.10926 0.11602,-0.0366 0.20763,-0.0726 0.30874,-0.10926 z"
       id="path4535-3"
       inkscape:connector-curvature="0"
       sodipodi:nodetypes="ccccccccccccccccccccccccccccccccccccccccccccccccccccccscccccccccccccccccccccccccsccccccccccccccccccccccccccccccccccsccccccccscccccccccccccccccccccscccscccccccsccccccccccccccccccccccccccccccccccccccccccccccccccccccccccccccccccccccccccccccsscccccccccccccccccscccccccccccsccccccccccccsccccccccccccccccccccscccccccccccccccccccccscsccccccccccccccccccccccccsccccscsccccccccsccccccccccccccccsccccccccccccccccccccacccc" />
    <path
       style="color:#000000;font-style:normal;font-variant:normal;font-weight:normal;font-stretch:normal;font-size:medium;line-height:normal;font-family:sans-serif;font-variant-ligatures:normal;font-variant-position:normal;font-variant-caps:normal;font-variant-numeric:normal;font-variant-alternates:normal;font-feature-settings:normal;text-indent:0;text-align:start;text-decoration:none;text-decoration-line:none;text-decoration-style:solid;text-decoration-color:#000000;letter-spacing:normal;word-spacing:normal;text-transform:none;writing-mode:lr-tb;direction:ltr;text-orientation:mixed;dominant-baseline:auto;baseline-shift:baseline;text-anchor:start;white-space:normal;shape-padding:0;clip-rule:nonzero;display:inline;overflow:visible;visibility:visible;opacity:1;isolation:auto;mix-blend-mode:normal;color-interpolation:sRGB;color-interpolation-filters:linearRGB;solid-color:#000000;solid-opacity:1;vector-effect:none;fill:#fff8ff;fill-opacity:1;fill-rule:nonzero;stroke:none;stroke-width:18.77318382;stroke-linecap:butt;stroke-linejoin:miter;stroke-miterlimit:4;stroke-dasharray:none;stroke-dashoffset:0;stroke-opacity:1;color-rendering:auto;image-rendering:auto;shape-rendering:auto;text-rendering:auto;enable-background:accumulate"
       d="m 339.82292,-169.64929 c -0.33164,-0.0133 -1.04552,0.0186 -2.13031,0.19946 -0.84606,0.14105 -1.27684,0.27525 -1.63019,0.38793 -0.027,-7.5e-4 -0.0766,0.0107 -0.19287,0.0462 -0.24078,0.0834 -0.37625,0.13383 -0.30724,0.13053 -0.325,0.11433 -0.69183,0.24178 -1.37135,0.58153 v 0 c -1.5403,0.77023 -1.93731,1.20455 -1.43292,0.86826 0.0248,-0.0166 -0.20747,0.12198 -0.6732,0.45466 0.23185,-0.1656 -0.30518,0.16249 -1.14986,0.90566 -0.004,-0.005 -0.0727,0.0645 -0.12465,0.10853 -0.17842,0.16134 -0.2617,0.20007 -0.47226,0.41067 -0.30544,0.30542 -0.26534,0.2812 -0.48401,0.50526 -0.22408,0.21871 -0.1999,0.17861 -0.50526,0.484 -0.27064,0.27066 -0.30109,0.34525 -0.49205,0.55659 -0.0203,0.0249 -0.0721,0.0775 -0.0741,0.0843 -0.7831,0.88122 -1.05103,1.33979 -0.63066,0.80006 -0.0274,0.0351 -0.2213,0.26425 -0.56395,0.70473 v 7.4e-4 7.4e-4 c -0.34614,0.4451 -0.48052,0.63772 -0.42315,0.56393 v 7.4e-4 c 0.16611,-0.2136 -0.16378,0.11332 -0.84479,1.08606 v 7.4e-4 c -0.90446,1.2923 -0.99915,1.52566 -0.42018,0.70033 0.65612,-0.94017 0.29527,-0.66236 -0.79861,1.05672 -1.07635,1.69147 -1.18369,2.13672 -0.61231,1.15719 0.3211,-0.55046 0.16126,-0.33762 -0.45172,0.65853 -0.38981,0.63344 -0.62428,1.07901 -0.75243,1.30679 -0.27026,0.48045 -0.51161,0.92044 -0.7311,1.31559 -0.22258,0.4006 -0.4667,0.83466 -0.726,1.30606 v 7.9e-4 c -0.45758,0.83194 -1.17272,2.06199 -1.87514,3.60724 -0.45769,1.00713 -0.68094,1.63463 -0.76925,1.83772 -0.0109,0.025 -0.35019,0.62579 -0.83965,1.87658 -0.53526,1.3678 -0.67914,1.99701 -0.61306,1.82086 0.051,-0.13605 -0.2573,0.44499 -0.74946,1.81205 -0.44031,1.22291 -0.61111,1.95967 -0.67392,2.15598 -0.0636,0.19848 -0.3158,0.82832 -0.63652,1.92792 -0.34836,1.19417 -0.4548,1.80458 -0.45176,1.79372 -0.1057,0.37741 -0.26516,0.87879 -0.4664,1.50772 -0.043,0.13424 -0.31911,0.79293 -0.66439,2.02618 -0.88298,4.06365 -0.57348,2.36778 -1.38531,5.13183 -0.29928,1.02598 -0.43689,1.71751 -0.51923,2.04672 v 7.9e-4 c -0.0813,0.32503 -0.28756,1.00297 -0.50744,2.05845 v -7.9e-4 c -0.27104,1.30083 -0.32019,1.87519 -0.28306,1.69692 0.0327,-0.1571 -0.15345,0.39772 -0.42386,1.69546 -0.21949,1.05381 -0.29984,1.75067 -0.35271,2.06798 v -8e-4 c -0.0943,0.56574 -0.1889,1.13125 -0.28306,1.69619 -0.18124,1.08738 -0.2602,1.55938 -0.28892,1.73065 -4e-5,2e-4 4e-5,0.002 0,0.002 0,0.0104 -0.004,0.0126 -0.004,0.0205 0,0.004 -0.004,0.0181 -0.004,0.0205 -0.004,0.0126 -0.005,0.031 -0.007,0.0411 0,0.005 0,0.006 -0.005,0.0272 0,0.005 -0.01,0.0648 -0.0101,0.0653 0,0.002 0.006,0.0179 0.006,0.0161 0,0.006 -0.009,0.061 -0.0101,0.0682 0.6054,-3.68724 0.20677,-2.82119 -0.58673,3.66368 -0.13675,1.13955 -0.15451,1.88911 -0.18113,2.23519 v 7.9e-4 c -0.047,0.61205 -0.0937,1.22377 -0.1408,1.83626 -0.0458,0.59485 -0.0957,1.21664 -0.14372,1.86485 -0.0602,0.81249 -0.0919,1.42058 -0.12834,1.82159 0.0368,-0.40382 -0.0719,0.0444 -0.15916,1.35885 v 8e-4 0.002 c -0.0763,1.15374 -0.0206,1.69238 -0.0206,1.60891 v 3.181914 c -0.008,0.049 -0.005,0.0272 -0.0131,0.0777 2.32131,-1.76881 12.15688,4.447016 17.37094,7.156416 0.004,-0.005 -0.15311,1.02991 0.77222,-1.72038 0.0561,-0.16685 0.0671,-0.26073 0.11365,-0.41287 0.004,-0.003 0.004,-0.0112 0.007,-0.0235 0.49884,-1.63799 0.49948,-2.306566 0.43486,-2.637036 0.25104,-1.8392 0.088,-2.48739 0.088,-1.80618 v -0.5654 -3.250854 c 0,-0.7386 0.0116,-0.8528 -0.0206,-0.36739 v -7.9e-4 c -2e-4,0.002 1e-4,-0.003 0,-0.002 -0.0364,0.551034 0.018,0.25706 0.12319,-0.90053 v -8e-4 c 0.0832,-0.91588 0.11651,-1.62884 0.15398,-2.13471 0.0427,-0.57701 0.0909,-1.18053 0.13934,-1.81059 0.0471,-0.61218 0.0945,-1.22436 0.14154,-1.83698 v -8e-4 c 0.0675,-0.87786 0.0924,-1.35845 0.10194,-1.43805 v -8e-4 c -0.005,0.0394 0.0832,-0.40253 0.23174,-1.33099 0.18642,-1.16515 0.26575,-1.6662 0.31385,-1.98878 0.008,-0.052 0.0192,-0.13767 0.0293,-0.2112 0.004,-0.0233 0.0139,-0.0849 0.0184,-0.11146 0.0116,-0.0471 0.058,0.0247 0.0726,-0.4334 0.0443,-0.26506 0.046,-0.27394 0.12172,-0.7282 0.0943,-0.56573 0.18819,-1.13125 0.28235,-1.69618 v -8e-4 c 0.13547,-0.81293 0.19911,-1.25492 0.21338,-1.32365 v -8e-4 c -0.0323,0.15606 0.1536,-0.39865 0.42386,-1.69618 0.2709,-1.30046 0.31956,-1.8741 0.28235,-1.69546 v -7.9e-4 c 0.0176,-0.0855 0.1396,-0.52755 0.34099,-1.33319 0.20043,-0.80146 0.30218,-1.25129 0.32929,-1.34419 -0.0327,0.11179 0.19907,-0.44018 0.56537,-1.69619 0.26999,-0.92567 0.39161,-1.31443 0.56173,-2.06945 0.0652,-0.28942 0.34081,-0.21786 0.31753,-1.57298 -0.0206,0.0767 0.14489,-0.36061 0.46272,-1.35373 v -7.9e-4 c 0.18935,-0.5917 0.4245,-1.31032 0.66442,-2.16698 0.0718,-0.25623 0.0387,-0.16614 0.0894,-0.36154 v 2.35325 2.26085 c 0,0.62191 -0.0297,1.51319 0.004,2.67152 v 7.9e-4 7.9e-4 c 0.0389,1.35236 0.13171,2.19799 0.14155,2.54244 0.004,0.0752 -0.089,0.97355 0.0116,2.68545 0.10179,1.73096 0.29677,2.60758 0.30067,2.65318 0.13081,1.52594 0.10784,1.25914 0.10705,1.65512 0,0.39535 0.0255,1.50022 0.18041,3.19804 0.14962,1.64574 0.25974,2.57561 0.42607,3.39384 0.16633,0.81824 0.14389,0.56599 0.36155,1.91545 0.0267,0.16405 0.0787,0.89376 0.29113,2.16846 v 0 c 0.28122,1.68734 0.68406,3.3725 0.97974,4.604564 0.10689,0.44546 0.25779,1.16493 0.54043,2.13398 0.35291,1.20989 0.59182,1.78467 0.58596,1.76512 -0.1931,-0.64336 -0.14948,-0.15237 0.36885,1.40212 0.46152,1.384206 0.77436,1.895886 0.66367,1.630186 v 8e-4 c 0.0285,0.0686 0.1046,0.26347 0.23245,0.58299 0.11193,0.27987 0.4863,1.31613 1.13007,2.44271 v -0.002 c 0.51229,0.8967 0.768,1.19201 0.6226,0.97386 v 8e-4 c -0.20598,-0.30894 -0.0199,0.10264 0.76264,1.08092 v 0 8e-4 c 0.86732,1.08406 1.13048,1.22567 0.89173,0.96652 0.11988,0.13257 0.12116,0.16158 0.29259,0.33073 0.54458,0.53732 1.34772,1.35986 3.19584,2.10758 1.84762,0.74753 5.30545,0.96473 7.85249,-0.30799 3.33261,-1.66585 3.66497,-3.12886 4.11395,-3.90864 0.44879,-0.77945 0.61734,-1.24915 0.68785,-1.42558 v -8e-4 c 0.0824,-0.20583 0.14989,-0.30967 0.374,-1.03252 0.22427,-0.72332 0.47912,-3.403016 0.31021,-4.426356 -0.16892,-1.02336 0.0638,0.28365 0.0953,0.92912 0.0315,0.64547 -0.0128,0.982986 -0.0248,1.091916 v 0.005 c -0.16074,1.43946 -0.0463,1.17534 0.15255,-0.815446 v -0.002 -0.003 c 0.14557,-1.4655 0.0455,-2.01668 0.0455,-1.63386 v -0.98999 c 0,-0.74006 0.0116,-0.85619 -0.0206,-0.3674 v -7.9e-4 c -8e-5,10e-4 7e-5,-0.002 0,-8e-4 -0.0364,0.55289 0.018,0.25721 0.12319,-0.90125 l 0.009,-0.0968 0.007,-0.0975 c -0.081,1.15659 0.004,-0.0493 0.0109,-0.15767 0.008,-0.1084 0.0192,-0.26327 0.0323,-0.44879 0.0267,-0.37104 0.0615,-0.86528 0.0968,-1.359594 0.0679,-0.95068 0.11493,-1.63227 0.1188,-1.68886 -0.0511,0.49986 0.29767,-1.95801 0.45172,-3.00224 0.13348,0.32814 0.29414,0.71674 0.65853,1.37279 v 8e-4 0 c 1.11122,2.00018 2.36643,3.01952 2.41487,3.0675 0.3645,0.976094 3.19564,2.498384 5.15016,3.021364 0.19302,0.0516 0.358,0.0933 0.51404,0.13126 0.15608,0.038 -1.07067,-0.0956 1.05382,0.20899 l 0.004,8e-4 h 0.004 c 3.99944,0.28537 4.76621,-0.0319 7.35815,-1.53335 -1.82994,0.39858 -1.74858,0.53802 0.009,-0.005 0.17605,-0.10125 0.32458,-0.18499 0.45761,-0.2684 -0.0199,0.0512 0,0.0773 -0.11516,0.14666 1.43124,-0.52413 1.47664,-1.05281 2.02034,-1.523124 0.38173,-0.33019 0.75584,-0.67998 1.25398,-1.31632 0.24907,-0.31817 0.53241,-0.7084 0.85578,-1.30313 0.13348,-0.24539 0.27503,-0.55927 0.41583,-0.89685 0,0.002 -0.004,0.008 -0.004,0.0102 -0.47507,1.14668 -0.76691,1.71498 -0.99587,2.09658 0.10423,-0.0891 0.11068,-0.0872 0.35199,-0.30726 0.7631,-0.6958 1.27974,-1.33291 1.91107,-2.09952 1.03888,-1.26146 1.63785,-2.13467 1.94405,-2.50211 v 0 c -0.0199,0.0239 0.3845,-0.37608 1.13081,-1.27159 v -8e-4 c 0.72544,-0.87056 1.03899,-1.33107 1.02447,-1.31339 v -7.9e-4 c 0.35307,-0.42875 0.70935,-0.79281 1.06109,-1.13519 0.30825,0.19196 0.59109,0.37672 0.62628,0.38939 0.46016,0.30477 0.81426,0.53607 0.78024,0.51113 -0.58399,-0.42823 -0.34981,-0.19033 0.76636,0.6468 v 0 c 1.14453,0.85829 1.9592,1.29037 2.35694,1.52899 0.2359,0.14156 0.47131,0.28293 0.70616,0.42386 v 0 c 0.23494,0.14094 0.47072,0.28216 0.70694,0.42386 -0.37438,-0.22459 0.10689,0.21853 1.65072,0.92033 v 0 c 1.46382,0.66535 2.10267,0.75513 1.76438,0.64239 0.28318,0.0944 0.56575,0.18855 0.84701,0.28233 v 8e-4 c 0.36255,0.12082 2.29611,0.74034 3.88444,0.87265 l 0.004,8e-4 h 0.004 c 1.30891,0.10815 1.85329,0.0315 1.62066,0.0315 h 0.98998 c -0.11902,0 0.43858,0.0637 1.66173,-0.0242 v 0 c 1.20524,-0.0866 1.75101,-0.22658 1.64336,-0.2112 -0.0989,0.0141 0.45648,-0.004 1.62871,-0.2552 1.36008,-0.29143 1.77685,-0.4744 1.29873,-0.35493 0.0432,-0.0108 0.7922,-0.11183 2.189,-0.51919 v 0 c 1.73212,-0.5053 2.21201,-0.75297 1.50407,-0.55073 v 0 c -0.63856,0.18246 -0.35252,0.12657 0.87043,-0.1452 0.60555,-0.13454 1.10841,-0.26815 1.51361,-0.3762 0.67178,-0.17918 0.98886,-0.28261 0.95991,-0.275 v 8e-4 c 0.2852,-0.0751 0.88384,-0.20212 1.77756,-0.44587 0.92424,-0.25208 0.84502,-0.2501 0.74285,-0.24053 0.12759,-0.0182 0.19104,-0.0288 0.49427,-0.0667 0.32672,-0.0408 0.72986,-0.0873 1.20779,-0.15106 v 0 c 0.91256,-0.12171 1.03797,-0.12429 0.37253,-0.0799 v 0 0 c -0.45735,0.0306 -0.29076,0.0205 0.5038,0.0205 h 1.13082 c 0.78971,0 1.03065,0.003 0.72379,-0.0154 v 0 c -0.48988,-0.0286 -0.2955,-0.0101 0.58155,0.0931 v -8e-4 c 0.37981,0.0447 0.88511,0.10958 1.51946,0.1672 0.82425,0.0749 1.46052,0.11022 1.90665,0.1474 v 0 c 1.07333,0.0894 1.48244,0.12996 2.50944,0.2508 0.33833,0.0398 0.66743,0.0813 0.98706,0.12393 v -7.9e-4 c -0.25182,-0.0336 0.27694,0.11434 1.6038,0.20313 1.62624,0.10879 2.00511,0.0585 1.13078,0 -1.06913,-0.071 -0.74646,0.0258 0.98923,0.14153 1.62628,0.10878 2.00513,0.0585 1.13082,0 v 0 0 c -1.04296,-0.0695 -0.72198,0.0186 0.94012,0.13787 1.22431,0.088 1.78158,0.0242 1.66248,0.0242 -0.11898,0 0.43896,0.0635 1.66098,-0.0242 0.74296,-0.0532 0.28201,-0.0356 0.48104,-0.0667 0.17605,0.002 0.60191,-0.0162 1.40799,-0.0785 1.07326,-0.0829 1.63372,-0.21304 1.69327,-0.2222 v 0 c 0.48018,-0.0739 0.10719,0.17443 2.59671,-0.50453 0.35594,-0.0971 1.57207,-0.34658 2.0709,-0.43633 0.12469,-0.0224 0.18372,-0.0329 0.28306,-0.0506 0.0248,-0.004 0,0.002 0.18702,-0.0352 0.047,-0.009 0.0849,-0.0138 0.30431,-0.0645 0.10972,-0.0254 0.77725,-0.21558 0.77733,-0.2156 0,-3e-5 -1.10436,-18.14619 -1.10439,-18.14619 -4e-5,-10e-6 -2.35176,-0.15634 -2.55053,-0.14007 -0.19877,0.0162 -0.27303,0.0263 -0.33585,0.0337 -0.12559,0.0148 -0.16445,0.0207 -0.2002,0.0257 -0.28595,0.04 -0.18404,0.0276 -0.23245,0.0352 -0.19358,0.0303 -0.62796,0.0987 -1.51432,0.23246 l 0.0116,0.0763 c -0.74837,0.13995 -1.48026,0.25817 -2.63632,0.57346 1.89944,-0.51802 -0.43156,0.0436 -0.49279,0.0572 -0.23681,0.007 -0.49254,0.0132 -1.1484,0.0638 -1.58637,0.12194 -1.89398,0.2053 -0.93644,0.13714 l -0.004,7.9e-4 h -0.004 c 0.56639,-0.0407 0.46258,-0.0242 -0.31606,-0.0242 -0.77864,0 -0.88249,-0.0165 -0.31607,0.0242 h -0.004 -0.004 c 1.01604,0.0726 0.67159,-0.0306 -1.03177,-0.14447 -1.6264,-0.1088 -2.0042,-0.0585 -1.13008,0 1.06677,0.0707 0.74451,-0.0258 -0.98998,-0.14153 -1.62639,-0.1088 -2.00419,-0.0585 -1.13004,0 v 0 0 c 0.6648,0.0444 0.53917,0.0418 -0.37324,-0.0799 v 0 c -0.43344,-0.0578 -0.85846,-0.11018 -1.27455,-0.15913 -1.15294,-0.13565 -1.96394,-0.21631 -3.14376,-0.3146 v 0 c -0.77763,-0.0648 -1.36752,-0.0994 -1.76659,-0.13566 v 0 c -0.21544,-0.0195 -0.55621,-0.0601 -1.02374,-0.11513 v 0 c 0.12247,0.0144 -0.43268,-0.11697 -1.67859,-0.18994 v 0 c -1.15166,-0.0673 -1.76115,-0.0161 -1.81938,-0.0161 h -1.13083 c 0.0408,0 -0.54753,-0.0596 -1.75701,0.0212 -1.32629,0.0887 -1.85558,0.23671 -1.6038,0.20313 v -7.9e-4 c -0.27498,0.0367 -0.62672,0.0786 -1.05377,0.132 v 0 c 0.20797,-0.026 -0.48135,-0.0455 -2.00272,0.2926 v -8e-4 c -1.52266,0.33828 -2.11694,0.60502 -1.84801,0.53167 -0.23071,0.0629 -0.77292,0.18103 -1.61479,0.40259 -0.69228,0.18221 -1.02835,0.29281 -1.0193,0.2904 -0.34509,0.092 -0.59451,0.15526 -0.74725,0.1892 v 0 c 0.2849,-0.0633 -0.39406,-0.0263 -1.95651,0.4202 -6.71884,3.31212 -6.6062,-1.32819 -15.27318,-4.63608 v -8e-4 c -0.0523,-0.0209 -0.44868,-0.18514 -0.90494,-0.36006 -0.45642,-0.17499 -0.42244,-0.35505 -2.45445,-0.72453 -0.49429,-0.0899 -0.50484,-0.0591 -0.86604,-0.11073 0.45228,-0.009 0.21859,-0.017 -0.70107,-0.0887 -0.67174,-0.0687 -0.84351,-0.10459 -0.55073,-0.0337 -0.40061,-0.0184 -0.41774,-0.0601 -0.97605,-0.0601 -2.09291,0 -1.5777,0.12335 -1.84285,0.16793 -0.26519,0.0446 -0.48127,0.0852 -0.69007,0.1254 -0.41759,0.0804 -0.84941,0.16886 -0.86311,0.1716 0.34088,-0.0682 -0.20673,-0.0515 -1.56201,0.35493 v 0 c -1.58051,0.47418 -3.31725,1.51149 -3.54561,1.64852 -0.70632,0.42381 -1.78064,1.1626 -2.52777,1.77392 v 0 c -0.11182,0.0915 -0.56958,0.42379 -1.28991,1.09266 v 0 c -0.58805,0.54607 -1.06707,1.12937 -1.5935,1.69765 -0.0706,-0.30278 -0.0188,-0.30662 -0.40554,-1.27306 v -7.9e-4 c -0.58136,-1.45297 -1.02268,-2.11788 -1.02595,-2.12439 v -8e-4 c -0.16171,-0.32335 -0.4168,-0.87668 -0.81986,-1.63238 -0.50459,-0.94602 -1.00418,-1.79678 -2.00348,-2.96264 v -0.002 c -0.0928,-0.10858 -0.64121,-0.91451 -2.09366,-1.95212 v 0 -7.9e-4 c -1.23632,-0.88303 -2.20055,-1.23631 -2.72286,-1.43219 -1.64866,-0.61875 -3.4275,-0.97799 -5.75661,-0.64533 -1.86174,0.2659 -2.71967,0.77408 -2.79397,0.80592 -0.99138,0.42489 -2.83611,1.65333 -3.06533,1.82526 -0.39104,0.29332 -0.8909,0.76212 -1.37573,1.19826 v -1.0387 c 0,-0.95015 -0.0165,-1.60601 -0.005,-1.96678 v -7.9e-4 c 0.006,-0.17674 0.0986,-0.9251 0.14151,-2.25059 v -7.9e-4 c 0.036,-1.11118 0.005,-1.92001 0.005,-2.42365 v -6.50036 -2.12005 c 0,-0.42801 0.0357,-1.20422 -0.006,-2.32612 -0.0418,-1.12793 -0.13614,-1.8535 -0.16059,-2.18311 v -7.9e-4 c -0.0282,-0.38174 -0.0446,-1.15933 -0.1738,-2.32172 v 7.9e-4 c -0.13385,-1.20507 -0.28828,-1.90872 -0.31971,-2.12885 -0.0312,-0.2184 -0.024,-0.17055 -0.0425,-0.30726 0.006,0.0986 -0.0165,0.42803 -0.0285,0.67759 0.004,-0.37291 0.009,-0.74942 0.009,-0.74946 0,-3e-5 -0.009,-0.10178 -0.0154,-0.17966 0,-0.006 -0.004,-0.0262 -0.005,-0.0315 0,0.001 0,0.005 0.004,0.007 -0.007,-0.0867 -0.0116,-0.1519 -0.0161,-0.19287 -0.0716,-0.67555 -0.0616,-0.46774 -0.0682,-0.50893 -0.0131,-0.0824 -0.0139,-0.0876 -0.0184,-0.11367 -0.0176,-0.10443 -0.0507,-0.29789 -0.13347,-0.79492 0.0568,0.34077 0.0631,-0.2794 -0.34468,-1.77466 -0.44119,-1.61754 -0.79123,-2.14375 -0.62333,-1.72257 v -7.4e-4 c -0.21537,-0.53845 -1.20581,-2.45362 -1.47021,-2.85036 v -7.4e-4 c 0.18469,0.27697 -0.0255,-0.076 -0.42678,-0.6358 -0.40138,-0.56015 -0.78653,-1.5133 -3.11884,-2.91277 v 0 c -1.20422,-0.72244 -3.13854,-1.32426 -4.38087,-1.43878 -1.24252,-0.11455 -1.54188,-0.0403 -1.29655,-0.0403 0.44391,0 0.49448,-0.0586 0.1628,-0.0719 z m 11.70831,14.66361 c 371.49347,-7.91994 185.74673,-3.95997 0,0 z m -19.4955,27.61345 c -0.0524,0.35682 -0.12901,0.45089 -0.14666,0.53533 -0.0349,0.16661 0.0908,-0.31828 0.14666,-0.53533 z m 110.36724,2.48232 c 0.007,-8e-4 -0.0128,0.002 -0.005,0.002 h -0.004 c 0.006,-2.7e-4 0,-10e-4 0.008,-0.002 z m -52.99538,13.99042 c 0.005,-8e-4 0.0349,0.0333 -0.32046,0.0609 0.0233,-0.005 0.0427,-0.009 0.066,-0.0132 0.12856,-0.0247 0.24709,-0.0464 0.25445,-0.0477 z m -9.13503,9.83319 c -0.36498,0.39996 -0.28816,0.29097 -0.0667,0.088 0.0485,-0.0444 0.0626,-0.0539 0.10047,-0.088 -0.0109,0.004 -0.0222,-0.0127 -0.0338,0 z m -2.87098,2.364244 c -0.0547,0.0317 -0.21837,0.0737 -0.30874,0.10927 0.11602,-0.0366 0.20763,-0.0726 0.30874,-0.10927 z"
       id="path4535-3-2"
       inkscape:connector-curvature="0"
       sodipodi:nodetypes="ccccccccccccccccccccccccccccccccccccccccccccccccccccccscccccccccccccccccccccccccsccccccccccccccccccccccccccccccccccsccccccccscccccccccccccccccccccscccscccccccsccccccccccccccccccccccccccccccccccccccccccccccccccccccccccccccccccccccccccccccsscccccccccccccccccscccccccccccsccccccccccccsccccccccccccccccccccscccccccccccccccccccccscsccccccccccccccccccccccccsccccscsccccccccsccccccccccccccccsccccccccccccccccccccacccc" />
  </g>
</svg>
