<?xml version="1.0" encoding="UTF-8" standalone="no"?>
<!-- Created with Inkscape (http://www.inkscape.org/) -->

<svg
   width="225.41365mm"
   height="225.41365mm"
   viewBox="0 0 225.41365 225.41365"
   version="1.1"
   id="svg17115"
   xmlns:xlink="http://www.w3.org/1999/xlink"
   xmlns="http://www.w3.org/2000/svg"
   xmlns:svg="http://www.w3.org/2000/svg"
   xmlns:rdf="http://www.w3.org/1999/02/22-rdf-syntax-ns#"
   xmlns:cc="http://creativecommons.org/ns#"
   xmlns:dc="http://purl.org/dc/elements/1.1/">
  <defs
     id="defs17109">
    <linearGradient
       id="linearGradient6739">
      <stop
         style="stop-color:#c1c1c1;stop-opacity:1;"
         offset="0"
         id="stop6735" />
      <stop
         style="stop-color:#c1c1c1;stop-opacity:0;"
         offset="1"
         id="stop6737" />
    </linearGradient>
    <linearGradient
       xlink:href="#linearGradient6739"
       id="linearGradient6741"
       x1="97.74601"
       y1="-72.674149"
       x2="390.41849"
       y2="-78.896194"
       gradientUnits="userSpaceOnUse"
       gradientTransform="translate(-381.12087,115.39839)" />
    <filter
       style="color-interpolation-filters:sRGB"
       id="filter6996"
       x="-0.07060345"
       width="1.1412069"
       y="-0.39951222"
       height="1.7990244">
      <feGaussianBlur
         stdDeviation="5.7679"
         id="feGaussianBlur6998" />
    </filter>
  </defs>
  <metadata
     id="metadata17112">
    <rdf:RDF>
      <cc:Work
         rdf:about="">
        <dc:format>image/svg+xml</dc:format>
        <dc:type
           rdf:resource="http://purl.org/dc/dcmitype/StillImage" />
      </cc:Work>
    </rdf:RDF>
  </metadata>
  <g
     id="layer1"
     transform="translate(-2.6271839,-51.629192)">
    <ellipse
       style="opacity:0.13999999;fill:#353232;fill-opacity:1;stroke:#0b0c07;stroke-width:0;stroke-miterlimit:4;stroke-dasharray:none;stroke-opacity:1;filter:url(#filter6996)"
       id="path6782"
       cx="120.00612"
       cy="256.85712"
       rx="98.033173"
       ry="17.324827"
       transform="matrix(0.65927419,0,0,0.85458377,36.292317,41.597996)" />
    <rect
       style="opacity:0.47000002;fill:#52515a;fill-opacity:0;stroke:#181a18;stroke-width:4.30700016;stroke-miterlimit:4;stroke-dasharray:none;stroke-opacity:0"
       id="rect6691"
       width="221.10664"
       height="221.10664"
       x="4.780684"
       y="53.782692"
       rx="7.1270022" />
    <path
       style="color:#000000;font-style:normal;font-variant:normal;font-weight:normal;font-stretch:normal;font-size:medium;line-height:normal;font-family:sans-serif;font-variant-ligatures:normal;font-variant-position:normal;font-variant-caps:normal;font-variant-numeric:normal;font-variant-alternates:normal;font-feature-settings:normal;text-indent:0;text-align:start;text-decoration:none;text-decoration-line:none;text-decoration-style:solid;text-decoration-color:#000000;letter-spacing:normal;word-spacing:normal;text-transform:none;writing-mode:lr-tb;direction:ltr;text-orientation:mixed;dominant-baseline:auto;baseline-shift:baseline;text-anchor:start;white-space:normal;shape-padding:0;clip-rule:nonzero;display:inline;overflow:visible;visibility:visible;opacity:1;isolation:auto;mix-blend-mode:normal;color-interpolation:sRGB;color-interpolation-filters:linearRGB;solid-color:#000000;solid-opacity:1;vector-effect:none;fill:#fff8ff;fill-opacity:1;fill-rule:nonzero;stroke:none;stroke-width:18.77318382;stroke-linecap:butt;stroke-linejoin:miter;stroke-miterlimit:4;stroke-dasharray:none;stroke-dashoffset:0;stroke-opacity:1;color-rendering:auto;image-rendering:auto;shape-rendering:auto;text-rendering:auto;enable-background:accumulate"
       d="m 339.82292,-169.64929 c -0.33164,-0.0133 -1.04552,0.0186 -2.13031,0.19946 -0.84606,0.14105 -1.27684,0.27525 -1.63019,0.38793 -0.027,-7.5e-4 -0.0766,0.0107 -0.19287,0.0462 -0.24078,0.0834 -0.37625,0.13383 -0.30724,0.13053 -0.325,0.11433 -0.69183,0.24178 -1.37135,0.58153 v 0 c -1.5403,0.77023 -1.93731,1.20455 -1.43292,0.86826 0.0248,-0.0166 -0.20747,0.12198 -0.6732,0.45466 0.23185,-0.1656 -0.30518,0.16249 -1.14986,0.90566 -0.004,-0.005 -0.0727,0.0645 -0.12465,0.10853 -0.17842,0.16134 -0.2617,0.20007 -0.47226,0.41067 -0.30544,0.30542 -0.26534,0.2812 -0.48401,0.50526 -0.22408,0.21871 -0.1999,0.17861 -0.50526,0.484 -0.27064,0.27066 -0.30109,0.34525 -0.49205,0.55659 -0.0203,0.0249 -0.0721,0.0775 -0.0741,0.0843 -0.7831,0.88122 -1.05103,1.33979 -0.63066,0.80006 -0.0274,0.0351 -0.2213,0.26425 -0.56395,0.70473 v 7.4e-4 7.4e-4 c -0.34614,0.4451 -0.48052,0.63772 -0.42315,0.56393 v 7.4e-4 c 0.16611,-0.2136 -0.16378,0.11332 -0.84479,1.08606 v 7.4e-4 c -0.90446,1.2923 -0.99915,1.52566 -0.42018,0.70033 0.65612,-0.94017 0.29527,-0.66236 -0.79861,1.05672 -1.07635,1.69147 -1.18369,2.13672 -0.61231,1.15719 0.3211,-0.55046 0.16126,-0.33762 -0.45172,0.65853 -0.38981,0.63344 -0.62428,1.07901 -0.75243,1.30679 -0.27026,0.48045 -0.51161,0.92044 -0.7311,1.31559 -0.22258,0.4006 -0.4667,0.83466 -0.726,1.30606 v 7.9e-4 c -0.45758,0.83194 -1.17272,2.06199 -1.87514,3.60724 -0.45769,1.00713 -0.68094,1.63463 -0.76925,1.83772 -0.0109,0.025 -0.35019,0.62579 -0.83965,1.87658 -0.53526,1.3678 -0.67914,1.99701 -0.61306,1.82086 0.051,-0.13605 -0.2573,0.44499 -0.74946,1.81205 -0.44031,1.22291 -0.61111,1.95967 -0.67392,2.15598 -0.0636,0.19848 -0.3158,0.82832 -0.63652,1.92792 -0.34836,1.19417 -0.4548,1.80458 -0.45176,1.79372 -0.1057,0.37741 -0.26516,0.87879 -0.4664,1.50772 -0.043,0.13424 -0.31911,0.79293 -0.66439,2.02618 -0.88298,4.06365 -0.57348,2.36778 -1.38531,5.13183 -0.29928,1.02598 -0.43689,1.71751 -0.51923,2.04672 v 7.9e-4 c -0.0813,0.32503 -0.28756,1.00297 -0.50744,2.05845 v -7.9e-4 c -0.27104,1.30083 -0.32019,1.87519 -0.28306,1.69692 0.0327,-0.1571 -0.15345,0.39772 -0.42386,1.69546 -0.21949,1.05381 -0.29984,1.75067 -0.35271,2.06798 v -8e-4 c -0.0943,0.56574 -0.1889,1.13125 -0.28306,1.69619 -0.18124,1.08738 -0.2602,1.55938 -0.28892,1.73065 -4e-5,2e-4 4e-5,0.002 0,0.002 0,0.0104 -0.004,0.0126 -0.004,0.0205 0,0.004 -0.004,0.0181 -0.004,0.0205 -0.004,0.0126 -0.005,0.031 -0.007,0.0411 0,0.005 0,0.006 -0.005,0.0272 0,0.005 -0.01,0.0648 -0.0101,0.0653 0,0.002 0.006,0.0179 0.006,0.0161 0,0.006 -0.009,0.061 -0.0101,0.0682 0.6054,-3.68724 0.20677,-2.82119 -0.58673,3.66368 -0.13675,1.13955 -0.15451,1.88911 -0.18113,2.23519 v 7.9e-4 c -0.047,0.61205 -0.0937,1.22377 -0.1408,1.83626 -0.0458,0.59485 -0.0957,1.21664 -0.14372,1.86485 -0.0602,0.81249 -0.0919,1.42058 -0.12834,1.82159 0.0368,-0.40382 -0.0719,0.0444 -0.15916,1.35885 v 8e-4 0.002 c -0.0763,1.15374 -0.0206,1.69238 -0.0206,1.60891 v 3.181914 c -0.008,0.049 -0.005,0.0272 -0.0131,0.0777 2.32131,-1.76881 12.15688,4.447016 17.37094,7.156416 0.004,-0.005 -0.15311,1.02991 0.77222,-1.72038 0.0561,-0.16685 0.0671,-0.26073 0.11365,-0.41287 0.004,-0.003 0.004,-0.0112 0.007,-0.0235 0.49884,-1.63799 0.49948,-2.306566 0.43486,-2.637036 0.25104,-1.8392 0.088,-2.48739 0.088,-1.80618 v -0.5654 -3.250854 c 0,-0.7386 0.0116,-0.8528 -0.0206,-0.36739 v -7.9e-4 c -2e-4,0.002 1e-4,-0.003 0,-0.002 -0.0364,0.551034 0.018,0.25706 0.12319,-0.90053 v -8e-4 c 0.0832,-0.91588 0.11651,-1.62884 0.15398,-2.13471 0.0427,-0.57701 0.0909,-1.18053 0.13934,-1.81059 0.0471,-0.61218 0.0945,-1.22436 0.14154,-1.83698 v -8e-4 c 0.0675,-0.87786 0.0924,-1.35845 0.10194,-1.43805 v -8e-4 c -0.005,0.0394 0.0832,-0.40253 0.23174,-1.33099 0.18642,-1.16515 0.26575,-1.6662 0.31385,-1.98878 0.008,-0.052 0.0192,-0.13767 0.0293,-0.2112 0.004,-0.0233 0.0139,-0.0849 0.0184,-0.11146 0.0116,-0.0471 0.058,0.0247 0.0726,-0.4334 0.0443,-0.26506 0.046,-0.27394 0.12172,-0.7282 0.0943,-0.56573 0.18819,-1.13125 0.28235,-1.69618 v -8e-4 c 0.13547,-0.81293 0.19911,-1.25492 0.21338,-1.32365 v -8e-4 c -0.0323,0.15606 0.1536,-0.39865 0.42386,-1.69618 0.2709,-1.30046 0.31956,-1.8741 0.28235,-1.69546 v -7.9e-4 c 0.0176,-0.0855 0.1396,-0.52755 0.34099,-1.33319 0.20043,-0.80146 0.30218,-1.25129 0.32929,-1.34419 -0.0327,0.11179 0.19907,-0.44018 0.56537,-1.69619 0.26999,-0.92567 0.39161,-1.31443 0.56173,-2.06945 0.0652,-0.28942 0.34081,-0.21786 0.31753,-1.57298 -0.0206,0.0767 0.14489,-0.36061 0.46272,-1.35373 v -7.9e-4 c 0.18935,-0.5917 0.4245,-1.31032 0.66442,-2.16698 0.0718,-0.25623 0.0387,-0.16614 0.0894,-0.36154 v 2.35325 2.26085 c 0,0.62191 -0.0297,1.51319 0.004,2.67152 v 7.9e-4 7.9e-4 c 0.0389,1.35236 0.13171,2.19799 0.14155,2.54244 0.004,0.0752 -0.089,0.97355 0.0116,2.68545 0.10179,1.73096 0.29677,2.60758 0.30067,2.65318 0.13081,1.52594 0.10784,1.25914 0.10705,1.65512 0,0.39535 0.0255,1.50022 0.18041,3.19804 0.14962,1.64574 0.25974,2.57561 0.42607,3.39384 0.16633,0.81824 0.14389,0.56599 0.36155,1.91545 0.0267,0.16405 0.0787,0.89376 0.29113,2.16846 v 0 c 0.28122,1.68734 0.68406,3.3725 0.97974,4.604564 0.10689,0.44546 0.25779,1.16493 0.54043,2.13398 0.35291,1.20989 0.59182,1.78467 0.58596,1.76512 -0.1931,-0.64336 -0.14948,-0.15237 0.36885,1.40212 0.46152,1.384206 0.77436,1.895886 0.66367,1.630186 v 8e-4 c 0.0285,0.0686 0.1046,0.26347 0.23245,0.58299 0.11193,0.27987 0.4863,1.31613 1.13007,2.44271 v -0.002 c 0.51229,0.8967 0.768,1.19201 0.6226,0.97386 v 8e-4 c -0.20598,-0.30894 -0.0199,0.10264 0.76264,1.08092 v 0 8e-4 c 0.86732,1.08406 1.13048,1.22567 0.89173,0.96652 0.11988,0.13257 0.12116,0.16158 0.29259,0.33073 0.54458,0.53732 1.34772,1.35986 3.19584,2.10758 1.84762,0.74753 5.30545,0.96473 7.85249,-0.30799 3.33261,-1.66585 3.66497,-3.12886 4.11395,-3.90864 0.44879,-0.77945 0.61734,-1.24915 0.68785,-1.42558 v -8e-4 c 0.0824,-0.20583 0.14989,-0.30967 0.374,-1.03252 0.22427,-0.72332 0.47912,-3.403016 0.31021,-4.426356 -0.16892,-1.02336 0.0638,0.28365 0.0953,0.92912 0.0315,0.64547 -0.0128,0.982986 -0.0248,1.091916 v 0.005 c -0.16074,1.43946 -0.0463,1.17534 0.15255,-0.815446 v -0.002 -0.003 c 0.14557,-1.4655 0.0455,-2.01668 0.0455,-1.63386 v -0.98999 c 0,-0.74006 0.0116,-0.85619 -0.0206,-0.3674 v -7.9e-4 c -8e-5,10e-4 7e-5,-0.002 0,-8e-4 -0.0364,0.55289 0.018,0.25721 0.12319,-0.90125 l 0.009,-0.0968 0.007,-0.0975 c -0.081,1.15659 0.004,-0.0493 0.0109,-0.15767 0.008,-0.1084 0.0192,-0.26327 0.0323,-0.44879 0.0267,-0.37104 0.0615,-0.86528 0.0968,-1.359594 0.0679,-0.95068 0.11493,-1.63227 0.1188,-1.68886 -0.0511,0.49986 0.29767,-1.95801 0.45172,-3.00224 0.13348,0.32814 0.29414,0.71674 0.65853,1.37279 v 8e-4 0 c 1.11122,2.00018 2.36643,3.01952 2.41487,3.0675 0.3645,0.976094 3.19564,2.498384 5.15016,3.021364 0.19302,0.0516 0.358,0.0933 0.51404,0.13126 0.15608,0.038 -1.07067,-0.0956 1.05382,0.20899 l 0.004,8e-4 h 0.004 c 3.99944,0.28537 4.76621,-0.0319 7.35815,-1.53335 -1.82994,0.39858 -1.74858,0.53802 0.009,-0.005 0.17605,-0.10125 0.32458,-0.18499 0.45761,-0.2684 -0.0199,0.0512 0,0.0773 -0.11516,0.14666 1.43124,-0.52413 1.47664,-1.05281 2.02034,-1.523124 0.38173,-0.33019 0.75584,-0.67998 1.25398,-1.31632 0.24907,-0.31817 0.53241,-0.7084 0.85578,-1.30313 0.13348,-0.24539 0.27503,-0.55927 0.41583,-0.89685 0,0.002 -0.004,0.008 -0.004,0.0102 -0.47507,1.14668 -0.76691,1.71498 -0.99587,2.09658 0.10423,-0.0891 0.11068,-0.0872 0.35199,-0.30726 0.7631,-0.6958 1.27974,-1.33291 1.91107,-2.09952 1.03888,-1.26146 1.63785,-2.13467 1.94405,-2.50211 v 0 c -0.0199,0.0239 0.3845,-0.37608 1.13081,-1.27159 v -8e-4 c 0.72544,-0.87056 1.03899,-1.33107 1.02447,-1.31339 v -7.9e-4 c 0.35307,-0.42875 0.70935,-0.79281 1.06109,-1.13519 0.30825,0.19196 0.59109,0.37672 0.62628,0.38939 0.46016,0.30477 0.81426,0.53607 0.78024,0.51113 -0.58399,-0.42823 -0.34981,-0.19033 0.76636,0.6468 v 0 c 1.14453,0.85829 1.9592,1.29037 2.35694,1.52899 0.2359,0.14156 0.47131,0.28293 0.70616,0.42386 v 0 c 0.23494,0.14094 0.47072,0.28216 0.70694,0.42386 -0.37438,-0.22459 0.10689,0.21853 1.65072,0.92033 v 0 c 1.46382,0.66535 2.10267,0.75513 1.76438,0.64239 0.28318,0.0944 0.56575,0.18855 0.84701,0.28233 v 8e-4 c 0.36255,0.12082 2.29611,0.74034 3.88444,0.87265 l 0.004,8e-4 h 0.004 c 1.30891,0.10815 1.85329,0.0315 1.62066,0.0315 h 0.98998 c -0.11902,0 0.43858,0.0637 1.66173,-0.0242 v 0 c 1.20524,-0.0866 1.75101,-0.22658 1.64336,-0.2112 -0.0989,0.0141 0.45648,-0.004 1.62871,-0.2552 1.36008,-0.29143 1.77685,-0.4744 1.29873,-0.35493 0.0432,-0.0108 0.7922,-0.11183 2.189,-0.51919 v 0 c 1.73212,-0.5053 2.21201,-0.75297 1.50407,-0.55073 v 0 c -0.63856,0.18246 -0.35252,0.12657 0.87043,-0.1452 0.60555,-0.13454 1.10841,-0.26815 1.51361,-0.3762 0.67178,-0.17918 0.98886,-0.28261 0.95991,-0.275 v 8e-4 c 0.2852,-0.0751 0.88384,-0.20212 1.77756,-0.44587 0.92424,-0.25208 0.84502,-0.2501 0.74285,-0.24053 0.12759,-0.0182 0.19104,-0.0288 0.49427,-0.0667 0.32672,-0.0408 0.72986,-0.0873 1.20779,-0.15106 v 0 c 0.91256,-0.12171 1.03797,-0.12429 0.37253,-0.0799 v 0 0 c -0.45735,0.0306 -0.29076,0.0205 0.5038,0.0205 h 1.13082 c 0.78971,0 1.03065,0.003 0.72379,-0.0154 v 0 c -0.48988,-0.0286 -0.2955,-0.0101 0.58155,0.0931 v -8e-4 c 0.37981,0.0447 0.88511,0.10958 1.51946,0.1672 0.82425,0.0749 1.46052,0.11022 1.90665,0.1474 v 0 c 1.07333,0.0894 1.48244,0.12996 2.50944,0.2508 0.33833,0.0398 0.66743,0.0813 0.98706,0.12393 v -7.9e-4 c -0.25182,-0.0336 0.27694,0.11434 1.6038,0.20313 1.62624,0.10879 2.00511,0.0585 1.13078,0 -1.06913,-0.071 -0.74646,0.0258 0.98923,0.14153 1.62628,0.10878 2.00513,0.0585 1.13082,0 v 0 0 c -1.04296,-0.0695 -0.72198,0.0186 0.94012,0.13787 1.22431,0.088 1.78158,0.0242 1.66248,0.0242 -0.11898,0 0.43896,0.0635 1.66098,-0.0242 0.74296,-0.0532 0.28201,-0.0356 0.48104,-0.0667 0.17605,0.002 0.60191,-0.0162 1.40799,-0.0785 1.07326,-0.0829 1.63372,-0.21304 1.69327,-0.2222 v 0 c 0.48018,-0.0739 0.10719,0.17443 2.59671,-0.50453 0.35594,-0.0971 1.57207,-0.34658 2.0709,-0.43633 0.12469,-0.0224 0.18372,-0.0329 0.28306,-0.0506 0.0248,-0.004 0,0.002 0.18702,-0.0352 0.047,-0.009 0.0849,-0.0138 0.30431,-0.0645 0.10972,-0.0254 0.77725,-0.21558 0.77733,-0.2156 0,-3e-5 -1.10436,-18.14619 -1.10439,-18.14619 -4e-5,-10e-6 -2.35176,-0.15634 -2.55053,-0.14007 -0.19877,0.0162 -0.27303,0.0263 -0.33585,0.0337 -0.12559,0.0148 -0.16445,0.0207 -0.2002,0.0257 -0.28595,0.04 -0.18404,0.0276 -0.23245,0.0352 -0.19358,0.0303 -0.62796,0.0987 -1.51432,0.23246 l 0.0116,0.0763 c -0.74837,0.13995 -1.48026,0.25817 -2.63632,0.57346 1.89944,-0.51802 -0.43156,0.0436 -0.49279,0.0572 -0.23681,0.007 -0.49254,0.0132 -1.1484,0.0638 -1.58637,0.12194 -1.89398,0.2053 -0.93644,0.13714 l -0.004,7.9e-4 h -0.004 c 0.56639,-0.0407 0.46258,-0.0242 -0.31606,-0.0242 -0.77864,0 -0.88249,-0.0165 -0.31607,0.0242 h -0.004 -0.004 c 1.01604,0.0726 0.67159,-0.0306 -1.03177,-0.14447 -1.6264,-0.1088 -2.0042,-0.0585 -1.13008,0 1.06677,0.0707 0.74451,-0.0258 -0.98998,-0.14153 -1.62639,-0.1088 -2.00419,-0.0585 -1.13004,0 v 0 0 c 0.6648,0.0444 0.53917,0.0418 -0.37324,-0.0799 v 0 c -0.43344,-0.0578 -0.85846,-0.11018 -1.27455,-0.15913 -1.15294,-0.13565 -1.96394,-0.21631 -3.14376,-0.3146 v 0 c -0.77763,-0.0648 -1.36752,-0.0994 -1.76659,-0.13566 v 0 c -0.21544,-0.0195 -0.55621,-0.0601 -1.02374,-0.11513 v 0 c 0.12247,0.0144 -0.43268,-0.11697 -1.67859,-0.18994 v 0 c -1.15166,-0.0673 -1.76115,-0.0161 -1.81938,-0.0161 h -1.13083 c 0.0408,0 -0.54753,-0.0596 -1.75701,0.0212 -1.32629,0.0887 -1.85558,0.23671 -1.6038,0.20313 v -7.9e-4 c -0.27498,0.0367 -0.62672,0.0786 -1.05377,0.132 v 0 c 0.20797,-0.026 -0.48135,-0.0455 -2.00272,0.2926 v -8e-4 c -1.52266,0.33828 -2.11694,0.60502 -1.84801,0.53167 -0.23071,0.0629 -0.77292,0.18103 -1.61479,0.40259 -0.69228,0.18221 -1.02835,0.29281 -1.0193,0.2904 -0.34509,0.092 -0.59451,0.15526 -0.74725,0.1892 v 0 c 0.2849,-0.0633 -0.39406,-0.0263 -1.95651,0.4202 -6.71884,3.31212 -6.6062,-1.32819 -15.27318,-4.63608 v -8e-4 c -0.0523,-0.0209 -0.44868,-0.18514 -0.90494,-0.36006 -0.45642,-0.17499 -0.42244,-0.35505 -2.45445,-0.72453 -0.49429,-0.0899 -0.50484,-0.0591 -0.86604,-0.11073 0.45228,-0.009 0.21859,-0.017 -0.70107,-0.0887 -0.67174,-0.0687 -0.84351,-0.10459 -0.55073,-0.0337 -0.40061,-0.0184 -0.41774,-0.0601 -0.97605,-0.0601 -2.09291,0 -1.5777,0.12335 -1.84285,0.16793 -0.26519,0.0446 -0.48127,0.0852 -0.69007,0.1254 -0.41759,0.0804 -0.84941,0.16886 -0.86311,0.1716 0.34088,-0.0682 -0.20673,-0.0515 -1.56201,0.35493 v 0 c -1.58051,0.47418 -3.31725,1.51149 -3.54561,1.64852 -0.70632,0.42381 -1.78064,1.1626 -2.52777,1.77392 v 0 c -0.11182,0.0915 -0.56958,0.42379 -1.28991,1.09266 v 0 c -0.58805,0.54607 -1.06707,1.12937 -1.5935,1.69765 -0.0706,-0.30278 -0.0188,-0.30662 -0.40554,-1.27306 v -7.9e-4 c -0.58136,-1.45297 -1.02268,-2.11788 -1.02595,-2.12439 v -8e-4 c -0.16171,-0.32335 -0.4168,-0.87668 -0.81986,-1.63238 -0.50459,-0.94602 -1.00418,-1.79678 -2.00348,-2.96264 v -0.002 c -0.0928,-0.10858 -0.64121,-0.91451 -2.09366,-1.95212 v 0 -7.9e-4 c -1.23632,-0.88303 -2.20055,-1.23631 -2.72286,-1.43219 -1.64866,-0.61875 -3.4275,-0.97799 -5.75661,-0.64533 -1.86174,0.2659 -2.71967,0.77408 -2.79397,0.80592 -0.99138,0.42489 -2.83611,1.65333 -3.06533,1.82526 -0.39104,0.29332 -0.8909,0.76212 -1.37573,1.19826 v -1.0387 c 0,-0.95015 -0.0165,-1.60601 -0.005,-1.96678 v -7.9e-4 c 0.006,-0.17674 0.0986,-0.9251 0.14151,-2.25059 v -7.9e-4 c 0.036,-1.11118 0.005,-1.92001 0.005,-2.42365 v -6.50036 -2.12005 c 0,-0.42801 0.0357,-1.20422 -0.006,-2.32612 -0.0418,-1.12793 -0.13614,-1.8535 -0.16059,-2.18311 v -7.9e-4 c -0.0282,-0.38174 -0.0446,-1.15933 -0.1738,-2.32172 v 7.9e-4 c -0.13385,-1.20507 -0.28828,-1.90872 -0.31971,-2.12885 -0.0312,-0.2184 -0.024,-0.17055 -0.0425,-0.30726 0.006,0.0986 -0.0165,0.42803 -0.0285,0.67759 0.004,-0.37291 0.009,-0.74942 0.009,-0.74946 0,-3e-5 -0.009,-0.10178 -0.0154,-0.17966 0,-0.006 -0.004,-0.0262 -0.005,-0.0315 0,0.001 0,0.005 0.004,0.007 -0.007,-0.0867 -0.0116,-0.1519 -0.0161,-0.19287 -0.0716,-0.67555 -0.0616,-0.46774 -0.0682,-0.50893 -0.0131,-0.0824 -0.0139,-0.0876 -0.0184,-0.11367 -0.0176,-0.10443 -0.0507,-0.29789 -0.13347,-0.79492 0.0568,0.34077 0.0631,-0.2794 -0.34468,-1.77466 -0.44119,-1.61754 -0.79123,-2.14375 -0.62333,-1.72257 v -7.4e-4 c -0.21537,-0.53845 -1.20581,-2.45362 -1.47021,-2.85036 v -7.4e-4 c 0.18469,0.27697 -0.0255,-0.076 -0.42678,-0.6358 -0.40138,-0.56015 -0.78653,-1.5133 -3.11884,-2.91277 v 0 c -1.20422,-0.72244 -3.13854,-1.32426 -4.38087,-1.43878 -1.24252,-0.11455 -1.54188,-0.0403 -1.29655,-0.0403 0.44391,0 0.49448,-0.0586 0.1628,-0.0719 z m 11.70831,14.66361 c 371.49347,-7.91994 185.74673,-3.95997 0,0 z m -19.4955,27.61345 c -0.0524,0.35682 -0.12901,0.45089 -0.14666,0.53533 -0.0349,0.16661 0.0908,-0.31828 0.14666,-0.53533 z m 110.36724,2.48232 c 0.007,-8e-4 -0.0128,0.002 -0.005,0.002 h -0.004 c 0.006,-2.7e-4 0,-10e-4 0.008,-0.002 z m -52.99538,13.99042 c 0.005,-8e-4 0.0349,0.0333 -0.32046,0.0609 0.0233,-0.005 0.0427,-0.009 0.066,-0.0132 0.12856,-0.0247 0.24709,-0.0464 0.25445,-0.0477 z m -9.13503,9.83319 c -0.36498,0.39996 -0.28816,0.29097 -0.0667,0.088 0.0485,-0.0444 0.0626,-0.0539 0.10047,-0.088 -0.0109,0.004 -0.0222,-0.0127 -0.0338,0 z m -2.87098,2.364244 c -0.0547,0.0317 -0.21837,0.0737 -0.30874,0.10927 0.11602,-0.0366 0.20763,-0.0726 0.30874,-0.10927 z"
       id="path4535-3-2" />
    <g
       id="g7006"
       transform="translate(-8.304316e-6)">
      <circle
         transform="rotate(-40.023209)"
         r="90.542618"
         cy="200.01695"
         cx="-17.363199"
         id="path17689"
         style="opacity:1;fill:#434444;fill-opacity:1;stroke:#2e3436;stroke-width:6;stroke-linecap:round;stroke-miterlimit:4;stroke-dasharray:none;stroke-opacity:1" />
      <path
         id="path17689-54"
         d="m 115.75973,83.086304 a 80.775344,80.618864 0 0 0 -52.064678,18.882176 80.775344,80.618864 0 0 0 -26.996313,44.83328 80.775344,80.618864 0 0 1 111.395441,11.71203 80.775344,80.618864 0 0 1 17.08627,68.74917 80.775344,80.618864 0 0 0 2.40743,-1.82119 80.775344,80.618864 0 0 0 9.91006,-113.58239 80.775344,80.618864 0 0 0 -61.73821,-28.773076 z"
         style="opacity:0.15;fill:#dadcda;fill-opacity:1;stroke:#ebebec;stroke-width:5.34756374;stroke-linecap:round;stroke-miterlimit:4;stroke-dasharray:none;stroke-opacity:1" />
      <g
         transform="translate(-5.4288907,3.9246876)"
         id="g6747">
        <path
           style="color:#000000;font-style:normal;font-variant:normal;font-weight:normal;font-stretch:normal;font-size:medium;line-height:normal;font-family:sans-serif;font-variant-ligatures:normal;font-variant-position:normal;font-variant-caps:normal;font-variant-numeric:normal;font-variant-alternates:normal;font-feature-settings:normal;text-indent:0;text-align:start;text-decoration:none;text-decoration-line:none;text-decoration-style:solid;text-decoration-color:#000000;letter-spacing:normal;word-spacing:normal;text-transform:none;writing-mode:lr-tb;direction:ltr;text-orientation:mixed;dominant-baseline:auto;baseline-shift:baseline;text-anchor:start;white-space:normal;shape-padding:0;clip-rule:nonzero;display:inline;overflow:visible;visibility:visible;opacity:1;isolation:auto;mix-blend-mode:normal;color-interpolation:sRGB;color-interpolation-filters:linearRGB;solid-color:#000000;solid-opacity:1;vector-effect:none;fill:#000000;fill-opacity:1;fill-rule:nonzero;stroke:none;stroke-width:18.77318382;stroke-linecap:butt;stroke-linejoin:miter;stroke-miterlimit:4;stroke-dasharray:none;stroke-dashoffset:0;stroke-opacity:1;color-rendering:auto;image-rendering:auto;shape-rendering:auto;text-rendering:auto;enable-background:accumulate"
           id="path4535-3-61"
           d="m 80.15625,119.77344 c -0.33164,-0.0133 -1.044116,0.0184 -2.128906,0.19922 -0.84606,0.14105 -1.27751,0.27404 -1.63086,0.38672 -0.027,-7.5e-4 -0.07709,0.0114 -0.193359,0.0469 -0.24078,0.0834 -0.375651,0.13416 -0.306641,0.13086 -0.325,0.11433 -0.691573,0.24228 -1.371093,0.58203 -1.5403,0.77023 -1.937984,1.20348 -1.433594,0.86719 0.0248,-0.0166 -0.208098,0.1224 -0.673828,0.45508 0.23185,-0.1656 -0.303758,0.16307 -1.148438,0.90625 -0.004,-0.005 -0.07305,0.0634 -0.125,0.10742 -0.17842,0.16134 -0.262096,0.20151 -0.472656,0.41211 -0.30544,0.30542 -0.265705,0.27984 -0.484375,0.5039 -0.22408,0.21871 -0.198546,0.17899 -0.503906,0.48438 -0.27064,0.27066 -0.301228,0.3453 -0.492188,0.55664 -0.0203,0.0249 -0.07222,0.0772 -0.07422,0.084 -0.783101,0.88122 -1.05123,1.34051 -0.63086,0.80079 -0.0274,0.0351 -0.221803,0.26459 -0.564453,0.70507 -0.34614,0.4451 -0.481198,0.63825 -0.423828,0.56446 v 0.002 c 0.16611,-0.21361 -0.16274,0.1132 -0.84375,1.08594 -0.90446,1.29229 -0.998892,1.5265 -0.419922,0.70117 0.65612,-0.94017 0.295052,-0.66244 -0.798828,1.05664 -1.07635,1.69146 -1.184661,2.13577 -0.613281,1.15625 0.3211,-0.55047 0.161808,-0.33794 -0.451172,0.6582 -0.38981,0.63344 -0.623803,1.07886 -0.751953,1.30664 -0.27026,0.48045 -0.510979,0.92126 -0.730469,1.31641 -0.22258,0.4006 -0.467263,0.83523 -0.726563,1.30664 -0.45758,0.83193 -1.17258,2.06217 -1.875,3.60742 -0.45769,1.00713 -0.681221,1.6348 -0.769531,1.83789 -0.0109,0.025 -0.350384,0.62617 -0.839844,1.87696 -0.53526,1.3678 -0.679361,1.99647 -0.613281,1.82031 0.051,-0.13604 -0.25784,0.44545 -0.75,1.8125 -0.44031,1.22292 -0.611018,1.95994 -0.673828,2.15625 -0.0636,0.19848 -0.315999,0.82813 -0.636719,1.92773 -0.34836,1.19417 -0.454212,1.80383 -0.451172,1.79297 -0.1057,0.37741 -0.265557,0.87888 -0.466796,1.50781 -0.043,0.13423 -0.318783,0.79213 -0.664063,2.02539 -0.88298,4.06365 -0.572936,2.36877 -1.384766,5.13282 -0.29928,1.02598 -0.437191,1.71766 -0.519531,2.04687 -0.0813,0.32503 -0.287932,1.00312 -0.507812,2.0586 -0.27104,1.30083 -0.320334,1.87553 -0.283204,1.69726 0.0327,-0.1571 -0.153418,0.39757 -0.423828,1.69531 -0.21949,1.05381 -0.298692,1.7491 -0.351562,2.06641 -0.0943,0.56573 -0.189043,1.13037 -0.283203,1.69531 -0.18124,1.08738 -0.260343,1.56115 -0.289063,1.73242 0,0 0,0.002 0,0.002 0,0.0104 -0.0039,0.0116 -0.0039,0.0195 0,0.004 -0.0039,0.0192 -0.0039,0.0215 -0.004,0.0126 -0.0058,0.0309 -0.0078,0.041 0,0.005 0.0011,0.006 -0.0039,0.0273 0,0.005 -0.01162,0.064 -0.01172,0.0645 0,0.002 0.0059,0.0174 0.0059,0.0156 0,0.006 -0.0087,0.0612 -0.0098,0.0684 0.6054,-3.68724 0.207563,-2.82081 -0.585938,3.66406 -0.136749,1.13955 -0.15502,1.8883 -0.18164,2.23438 v 0.002 c -0.047,0.61205 -0.09352,1.22345 -0.140625,1.83594 -0.0458,0.59485 -0.09651,1.21702 -0.144531,1.86523 -0.0602,0.81249 -0.09051,1.4193 -0.126954,1.82031 0.0368,-0.40381 -0.0729,0.0449 -0.160156,1.35938 v 0.002 0.002 c -0.0763,1.15374 -0.01953,1.69089 -0.01953,1.60742 v 3.18164 c -0.008,0.049 -0.0056,0.0276 -0.01367,0.0781 2.32131,-1.76881 12.157034,4.44685 17.371094,7.15625 0.004,-0.005 -0.153846,1.02959 0.771484,-1.7207 0.0561,-0.16685 0.06869,-0.25998 0.115235,-0.41211 0.004,-0.003 0.0029,-0.0111 0.0059,-0.0234 0.49884,-1.638 0.500167,-2.30625 0.435547,-2.63671 0.25104,-1.83921 0.08789,-2.48785 0.08789,-1.80665 v -0.56445 -3.25195 c 0,-0.7386 0.01072,-0.8526 -0.02148,-0.36719 0,0 0,-0.002 0,-0.002 -0.0364,0.55104 0.01786,0.2572 0.123047,-0.90039 v -0.002 c 0.0832,-0.91588 0.116827,-1.62889 0.154297,-2.13476 0.0427,-0.57701 0.09219,-1.18049 0.140625,-1.81055 0.0471,-0.61218 0.09359,-1.22331 0.140625,-1.83594 v -0.002 c 0.0675,-0.87787 0.09202,-1.3579 0.101562,-1.4375 -0.005,0.0394 0.08388,-0.40357 0.232422,-1.33203 0.18642,-1.16515 0.266353,-1.6657 0.314453,-1.98828 0.008,-0.052 0.0192,-0.13741 0.0293,-0.21094 0.004,-0.0233 0.01308,-0.0848 0.01758,-0.11133 0.0116,-0.0471 0.05767,0.0245 0.07227,-0.43359 0.0443,-0.26507 0.04537,-0.27426 0.121094,-0.72852 0.0943,-0.56573 0.189043,-1.13233 0.283203,-1.69726 0.13547,-0.81293 0.198621,-1.25549 0.212891,-1.32422 -0.0323,0.15606 0.153568,-0.39778 0.423828,-1.69531 0.2709,-1.30046 0.320413,-1.87591 0.283203,-1.69727 0.0176,-0.0855 0.138453,-0.52834 0.339843,-1.33398 0.20043,-0.80146 0.302969,-1.25085 0.330079,-1.34375 -0.0327,0.11179 0.198153,-0.43931 0.564453,-1.69532 0.26999,-0.92567 0.39238,-1.31529 0.5625,-2.07031 0.0652,-0.28942 0.341639,-0.21714 0.318359,-1.57226 -0.0206,0.0767 0.145061,-0.3604 0.462891,-1.35352 v -0.002 c 0.18935,-0.5917 0.424142,-1.30935 0.664062,-2.16602 0.0718,-0.25622 0.03914,-0.16594 0.08984,-0.36133 v 2.35352 2.25976 c 0,0.62191 -0.02979,1.51356 0.0039,2.67188 v 0.002 c 0.0389,1.35236 0.130785,2.19657 0.140625,2.54102 0.004,0.0752 -0.08888,0.97364 0.01172,2.68554 0.10179,1.73097 0.296881,2.6087 0.300781,2.6543 0.13081,1.52594 0.108212,1.25832 0.107422,1.6543 0,0.39535 0.02478,1.5014 0.179688,3.19922 0.14962,1.64574 0.259451,2.57435 0.425781,3.39258 0.16633,0.81823 0.143668,0.56655 0.361328,1.91601 0.0267,0.16405 0.07859,0.89328 0.291016,2.16797 0.28122,1.68735 0.684788,3.37341 0.980468,4.60547 0.10689,0.44546 0.258366,1.16376 0.541016,2.13281 0.3529,1.20989 0.591798,1.78518 0.585938,1.76563 -0.193101,-0.64335 -0.14918,-0.15216 0.36914,1.40234 0.46152,1.38421 0.7728,1.89656 0.66211,1.63086 0.0285,0.0686 0.104581,0.26446 0.232421,0.58398 0.11193,0.27988 0.48709,1.31483 1.13086,2.44141 0.510832,0.89371 0.76825,1.1905 0.623047,0.97266 -0.20598,-0.30894 -0.02082,0.10374 0.761718,1.08203 0.86732,1.08406 1.131329,1.22594 0.892578,0.96679 0.11988,0.13257 0.121539,0.16092 0.292969,0.33008 0.54458,0.53731 1.347203,1.3597 3.195313,2.10742 1.84762,0.74752 5.304522,0.96608 7.851562,-0.30664 3.33261,-1.66585 3.666255,-3.13038 4.115235,-3.91015 0.44879,-0.77945 0.61699,-1.2474 0.6875,-1.42383 v -0.002 c 0.0824,-0.20583 0.148936,-0.30839 0.373047,-1.03125 0.22427,-0.72331 0.479466,-3.40439 0.310546,-4.42774 -0.16892,-1.02335 0.0642,0.28422 0.0957,0.92969 0.0315,0.64547 -0.01339,0.98287 -0.02539,1.0918 -0.155844,1.40601 -0.04514,1.16643 0.152344,-0.81055 v -0.002 -0.004 c 0.14557,-1.4655 0.04687,-2.01563 0.04687,-1.63281 v -0.99024 c 0,-0.74006 0.01072,-0.85597 -0.02148,-0.36718 0,0 0,-0.002 0,-0.002 -0.0364,0.55289 0.01786,0.25807 0.123047,-0.90039 l 0.0098,-0.0976 0.0059,-0.0977 c -0.081,1.15659 0.0048,-0.0479 0.01172,-0.15625 0.008,-0.1084 0.0201,-0.2637 0.0332,-0.44922 0.0267,-0.37105 0.0604,-0.86506 0.0957,-1.35937 0.0679,-0.95068 0.115281,-1.63287 0.119141,-1.68946 -0.0511,0.49986 0.297131,-1.95772 0.451171,-3.00195 0.13348,0.32813 0.29381,0.717 0.6582,1.37305 1.11122,2.00018 2.36758,3.02038 2.41602,3.06836 0.3645,0.97609 3.19587,2.49851 5.15039,3.02148 0.19303,0.0516 0.35764,0.0928 0.51367,0.13086 0.15608,0.038 -1.07174,-0.0956 1.05274,0.20898 h 0.004 0.006 c 3.99944,0.28537 4.76548,-0.0318 7.35742,-1.5332 -1.82994,0.39859 -1.74781,0.53911 0.01,-0.004 0.17606,-0.10124 0.324,-0.18612 0.45703,-0.26953 -0.0199,0.0512 -7e-5,0.0771 -0.11523,0.14649 1.43123,-0.52413 1.47583,-1.05313 2.01953,-1.52344 0.38174,-0.33019 0.75577,-0.68007 1.2539,-1.31641 0.23965,-0.30611 0.51405,-0.69643 0.82227,-1.2539 -0.18582,0.39238 -0.42398,0.95077 -0.55078,1.16211 0.10423,-0.0891 0.1122,-0.0885 0.35351,-0.3086 0.76309,-0.69579 1.27882,-1.33301 1.91016,-2.09961 1.03887,-1.26146 1.63717,-2.13451 1.94336,-2.50195 -0.0199,0.0239 0.38455,-0.37597 1.13086,-1.27148 0.72544,-0.87056 1.03992,-1.33214 1.02539,-1.31446 0.35308,-0.42876 0.70882,-0.79237 1.06055,-1.13476 0.30826,0.19197 0.59177,0.376 0.62695,0.38867 0.46016,0.30477 0.81331,0.53666 0.7793,0.51172 -0.584,-0.42823 -0.34861,-0.19064 0.76757,0.64648 1.14452,0.8583 1.9597,1.29069 2.35743,1.5293 0.23591,0.14157 0.47022,0.2829 0.70507,0.42383 0.23493,0.14094 0.47083,0.28213 0.70704,0.42383 -0.37438,-0.22459 0.10656,0.21812 1.65039,0.91992 1.46382,0.66535 2.10391,0.75532 1.76562,0.64258 0.28318,0.0944 0.56444,0.18942 0.8457,0.2832 0.36255,0.12083 2.29644,0.74074 3.88477,0.87305 h 0.004 0.004 c 1.30891,0.10815 1.85373,0.0312 1.6211,0.0312 h 0.99023 c -0.11903,0 0.43896,0.0645 1.66211,-0.0234 1.20524,-0.0866 1.75022,-0.22632 1.64258,-0.21094 -0.0989,0.0141 0.45667,-0.005 1.6289,-0.25586 1.36008,-0.29144 1.77695,-0.47494 1.29883,-0.35547 0.0432,-0.0108 0.79266,-0.11022 2.18946,-0.51758 1.73212,-0.5053 2.21184,-0.75301 1.5039,-0.55078 -0.63856,0.18247 -0.35381,0.1253 0.86914,-0.14648 0.60555,-0.13453 1.10847,-0.26695 1.51367,-0.375 0.67178,-0.17918 0.98989,-0.28301 0.96094,-0.27539 0.2852,-0.0751 0.88363,-0.20156 1.77735,-0.44531 0.92424,-0.25208 0.84435,-0.24981 0.74218,-0.24024 0.12759,-0.0182 0.19091,-0.0285 0.49414,-0.0664 0.32672,-0.0408 0.73106,-0.0886 1.20899,-0.15235 0.91256,-0.12171 1.03653,-0.12447 0.37109,-0.0801 -0.45735,0.0306 -0.29065,0.0215 0.50391,0.0215 h 1.13086 c 0.78971,0 1.03147,0.003 0.72461,-0.0156 -0.48988,-0.0286 -0.29502,-0.009 0.58203,0.0937 v -0.002 c 0.37981,0.0447 0.88518,0.11035 1.51953,0.16797 0.82425,0.0749 1.46012,0.1093 1.90625,0.14648 1.07333,0.0894 1.48276,0.13112 2.50977,0.25196 0.33833,0.0398 0.66669,0.0804 0.98632,0.12304 -0.25182,-0.0336 0.27666,0.11434 1.60352,0.20313 1.62624,0.10879 2.00519,0.0585 1.13086,0 -1.06913,-0.071 -0.74546,0.0249 0.99023,0.14062 1.62628,0.10878 2.00517,0.0585 1.13086,0 -1.04296,-0.0695 -0.72265,0.0193 0.93945,0.13867 1.22432,0.088 1.78121,0.0234 1.66211,0.0234 -0.11898,0 0.44009,0.0643 1.66211,-0.0234 0.74296,-0.0532 0.28144,-0.0353 0.48047,-0.0664 0.17605,0.002 0.60213,-0.0158 1.40821,-0.0781 1.07326,-0.0829 1.63381,-0.21349 1.69336,-0.22265 0.48017,-0.0739 0.10618,0.1731 2.5957,-0.50586 0.35594,-0.0971 1.57343,-0.3458 2.07226,-0.43555 0.12469,-0.0224 0.18191,-0.0331 0.28125,-0.0508 0.0248,-0.004 4.8e-4,0.002 0.1875,-0.0352 0.047,-0.009 0.0853,-0.0137 0.30469,-0.0644 0.10972,-0.0254 0.77726,-0.21482 0.77734,-0.21484 0,-3e-5 -1.10348,-18.14649 -1.10351,-18.14649 -4e-5,-1e-5 -2.35201,-0.15689 -2.55078,-0.14062 -0.19877,0.0162 -0.27312,0.0258 -0.33594,0.0332 -0.12559,0.0148 -0.16542,0.0223 -0.20117,0.0273 -0.28595,0.04 -0.18401,0.0276 -0.23242,0.0352 -0.19358,0.0303 -0.62732,0.0987 -1.51368,0.23242 l 0.0117,0.0762 c -0.74837,0.13994 -1.48065,0.25698 -2.63672,0.57227 1.89944,-0.51802 -0.43095,0.0451 -0.49218,0.0586 -0.23681,0.007 -0.49258,0.0119 -1.14844,0.0625 -1.58637,0.12193 -1.89504,0.20488 -0.9375,0.13672 l -0.004,0.002 h -0.004 c 0.56639,-0.0407 0.46223,-0.0254 -0.31641,-0.0254 -0.77864,0 -0.88087,-0.0153 -0.31445,0.0254 h -0.004 -0.006 c 1.01604,0.0726 0.67211,-0.0307 -1.03125,-0.14454 -1.6264,-0.1088 -2.00302,-0.0585 -1.1289,0 1.06677,0.0707 0.74425,-0.0268 -0.99024,-0.14257 -1.62639,-0.1088 -2.00501,-0.0585 -1.13086,0 0.6648,0.0444 0.53937,0.0416 -0.37304,-0.0801 -0.43344,-0.0578 -0.8593,-0.10926 -1.27539,-0.15821 -1.15295,-0.13565 -1.96276,-0.21616 -3.14258,-0.31445 -0.77763,-0.0648 -1.36851,-0.10046 -1.76758,-0.13672 -0.21544,-0.0196 -0.55591,-0.0582 -1.02344,-0.11328 0.12247,0.0144 -0.43182,-0.11844 -1.67773,-0.19141 -1.15166,-0.0673 -1.76209,-0.0156 -1.82032,-0.0156 h -1.13085 c 0.0408,0 -0.54638,-0.0594 -1.75586,0.0215 -1.32629,0.0887 -1.8553,0.23671 -1.60352,0.20313 -0.27498,0.0367 -0.62764,0.0776 -1.05469,0.13086 0.20797,-0.026 -0.48058,-0.0451 -2.00195,0.29297 -1.52266,0.33828 -2.11854,0.6046 -1.84961,0.53125 -0.23071,0.0629 -0.77141,0.18078 -1.61328,0.40234 -0.69228,0.18221 -1.02858,0.29343 -1.01953,0.29102 -0.34509,0.092 -0.59531,0.15356 -0.74805,0.1875 0.2849,-0.0633 -0.39458,-0.0246 -1.95703,0.42187 -6.71884,3.31212 -6.60451,-1.32883 -15.27148,-4.63672 v -0.002 c -0.0523,-0.0209 -0.44999,-0.18445 -0.90626,-0.35937 -0.45642,-0.175 -0.42111,-0.35513 -2.45312,-0.72461 -0.49429,-0.0899 -0.50599,-0.0597 -0.86719,-0.11133 0.45228,-0.009 0.21849,-0.0162 -0.70117,-0.0879 -0.67174,-0.0687 -0.84356,-0.1041 -0.55078,-0.0332 -0.40061,-0.0184 -0.4163,-0.0605 -0.97461,-0.0605 -2.09291,0 -1.5786,0.12339 -1.84375,0.16797 -0.26519,0.0446 -0.48065,0.0848 -0.68945,0.125 -0.41759,0.0804 -0.84958,0.16913 -0.86328,0.17187 0.34088,-0.0682 -0.20722,-0.051 -1.5625,0.35547 -1.58051,0.47418 -3.31657,1.51141 -3.54493,1.64844 -0.70632,0.42381 -1.78216,1.16211 -2.52929,1.77343 -0.11182,0.0915 -0.56874,0.42488 -1.28907,1.09375 -0.58805,0.54606 -1.06732,1.12899 -1.59375,1.69727 -0.0706,-0.30278 -0.0175,-0.307 -0.40429,-1.27344 -0.58136,-1.45297 -1.02408,-2.11849 -1.02735,-2.125 v -0.002 c -0.16171,-0.32335 -0.41725,-0.87516 -0.82031,-1.63086 -0.50459,-0.94602 -1.00265,-1.79702 -2.00195,-2.96289 v -0.002 c -0.0928,-0.10857 -0.6413,-0.91552 -2.09375,-1.95313 -1.23632,-0.88303 -2.20035,-1.23576 -2.72266,-1.43164 -1.64866,-0.61875 -3.4287,-0.97915 -5.757811,-0.64648 -1.86174,0.2659 -2.718668,0.7748 -2.792968,0.80664 -0.99138,0.4249 -2.837187,1.65229 -3.066407,1.82422 -0.39104,0.29332 -0.89017,0.76307 -1.375,1.19921 v -1.03906 c 0,-0.95015 -0.01736,-1.60601 -0.0059,-1.96679 0.006,-0.17675 0.09967,-0.92647 0.142578,-2.25196 0.036,-1.11118 0.0039,-1.9202 0.0039,-2.42383 v -6.5 -2.12109 c 0,-0.42801 0.03584,-1.20427 -0.0059,-2.32617 -0.0418,-1.12793 -0.135706,-1.85203 -0.160156,-2.18164 v -0.002 c -0.0282,-0.38174 -0.04463,-1.15792 -0.173828,-2.32031 -0.07,-0.63021 -0.107249,-0.75478 -0.167969,-1.11328 -0.05539,-0.32701 -0.137351,-0.91062 -0.152344,-1.01562 -0.0312,-0.2184 -0.02251,-0.16993 -0.04102,-0.30664 0.006,0.0986 -0.0173,0.42817 -0.0293,0.67773 0.004,-0.37291 0.0098,-0.74997 0.0098,-0.75 0,-3e-5 -0.0092,-0.1018 -0.01563,-0.17969 0,-0.006 -0.0049,-0.0259 -0.0059,-0.0312 0,0.001 -9.4e-5,0.004 0.0039,0.006 -0.007,-0.0867 -0.01113,-0.15044 -0.01563,-0.19141 -0.0716,-0.67554 -0.06176,-0.46858 -0.06836,-0.50976 -0.0131,-0.0824 -0.01308,-0.0872 -0.01758,-0.11328 -0.0176,-0.10442 -0.052,-0.29788 -0.134766,-0.79492 0.0568,0.34078 0.06402,-0.28013 -0.34375,-1.77539 -0.44119,-1.61755 -0.790947,-2.14384 -0.623047,-1.72266 -0.21537,-0.53845 -1.206303,-2.45482 -1.470703,-2.85156 0.18469,0.27698 -0.02644,-0.075 -0.427734,-0.63477 -0.40137,-0.56015 -0.784878,-1.51458 -3.117188,-2.91406 -1.20422,-0.72243 -3.138529,-1.32298 -4.380859,-1.4375 -1.24252,-0.11455 -1.542205,-0.041 -1.296875,-0.041 0.439448,0 0.480895,-0.0582 0.160156,-0.0723 z m 49.58594,58.75 c 0.005,-7.9e-4 0.0351,0.0329 -0.32031,0.0605 0.0233,-0.004 0.0412,-0.009 0.0645,-0.0137 0.12856,-0.0247 0.2485,-0.0456 0.25586,-0.0469 z m -9.13477,9.83203 c -0.36498,0.39997 -0.28982,0.29086 -0.0684,0.0879 0.0485,-0.0444 0.0637,-0.0538 0.10156,-0.0879 -0.0109,0.004 -0.0216,-0.0127 -0.0332,0 z m -2.87109,2.36523 c -0.0547,0.0317 -0.21823,0.0738 -0.3086,0.10938 0.11602,-0.0366 0.20749,-0.0727 0.3086,-0.10938 z"
           transform="translate(3.1524141)" />
        <path
           style="color:#000000;font-style:normal;font-variant:normal;font-weight:normal;font-stretch:normal;font-size:medium;line-height:normal;font-family:sans-serif;font-variant-ligatures:normal;font-variant-position:normal;font-variant-caps:normal;font-variant-numeric:normal;font-variant-alternates:normal;font-feature-settings:normal;text-indent:0;text-align:start;text-decoration:none;text-decoration-line:none;text-decoration-style:solid;text-decoration-color:#000000;letter-spacing:normal;word-spacing:normal;text-transform:none;writing-mode:lr-tb;direction:ltr;text-orientation:mixed;dominant-baseline:auto;baseline-shift:baseline;text-anchor:start;white-space:normal;shape-padding:0;clip-rule:nonzero;display:inline;overflow:visible;visibility:visible;opacity:1;isolation:auto;mix-blend-mode:normal;color-interpolation:sRGB;color-interpolation-filters:linearRGB;solid-color:#000000;solid-opacity:1;vector-effect:none;fill:#fff8ff;fill-opacity:1;fill-rule:nonzero;stroke:none;stroke-width:18.77318382;stroke-linecap:butt;stroke-linejoin:miter;stroke-miterlimit:4;stroke-dasharray:none;stroke-dashoffset:0;stroke-opacity:1;color-rendering:auto;image-rendering:auto;shape-rendering:auto;text-rendering:auto;enable-background:accumulate"
           id="path4535-3"
           d="m 78.570312,115.01172 c -0.331639,-0.0133 -1.046069,0.0184 -2.130859,0.19922 -0.84606,0.14105 -1.277509,0.27404 -1.630859,0.38672 -0.027,-7.5e-4 -0.07709,0.0114 -0.19336,0.0469 -0.24078,0.0834 -0.37565,0.13416 -0.30664,0.13086 -0.325,0.11433 -0.691574,0.24228 -1.371094,0.58203 -1.5403,0.77024 -1.937984,1.20349 -1.433594,0.86719 0.0248,-0.0166 -0.206145,0.1224 -0.671875,0.45508 0.23185,-0.1656 -0.30571,0.16307 -1.15039,0.90625 -0.004,-0.005 -0.07305,0.0634 -0.125,0.10742 -0.17842,0.16134 -0.262097,0.20151 -0.472657,0.41211 -0.30544,0.30543 -0.265705,0.27985 -0.484375,0.50391 -0.22408,0.21871 -0.198546,0.17898 -0.503906,0.48437 -0.27064,0.27066 -0.301227,0.3453 -0.492187,0.55664 -0.0203,0.0249 -0.07222,0.0772 -0.07422,0.084 -0.7831,0.88121 -1.051229,1.3405 -0.630859,0.80078 -0.0274,0.0351 -0.221804,0.26459 -0.564454,0.70507 -0.34614,0.44509 -0.479245,0.63826 -0.421875,0.56446 v 0.002 c 0.16611,-0.2136 -0.164693,0.11321 -0.845703,1.08594 -0.90446,1.2923 -0.998892,1.52651 -0.419922,0.70117 0.65612,-0.94016 0.295052,-0.66245 -0.798828,1.05664 -1.07635,1.69147 -1.182708,2.13578 -0.611328,1.15625 0.3211,-0.55047 0.159855,-0.33795 -0.453125,0.6582 -0.38981,0.63343 -0.623803,1.07885 -0.751953,1.30664 -0.27026,0.48045 -0.510979,0.92126 -0.730469,1.31641 -0.22258,0.4006 -0.467262,0.83524 -0.726562,1.30664 -0.45758,0.83194 -1.17258,2.06217 -1.875,3.60742 -0.45769,1.00713 -0.681221,1.6348 -0.769531,1.83789 -0.0109,0.025 -0.350384,0.62617 -0.839844,1.87696 -0.53526,1.3678 -0.679362,1.99646 -0.613282,1.82031 0.051,-0.13605 -0.255886,0.44544 -0.748046,1.8125 -0.44031,1.22291 -0.612972,1.95994 -0.675782,2.15625 -0.0636,0.19849 -0.314045,0.82813 -0.634765,1.92773 -0.34836,1.19417 -0.456165,1.80383 -0.453125,1.79297 -0.1057,0.37741 -0.263604,0.87889 -0.464844,1.50782 -0.043,0.13424 -0.320736,0.79215 -0.666016,2.02539 -0.88298,4.06365 -0.572935,2.36876 -1.384765,5.13281 -0.29928,1.02598 -0.437191,1.71766 -0.519531,2.04687 -0.0813,0.32503 -0.287933,1.00312 -0.507813,2.0586 -0.27104,1.30083 -0.320333,1.87553 -0.283203,1.69726 0.0327,-0.1571 -0.153418,0.39758 -0.423828,1.69531 -0.21949,1.05381 -0.298693,1.7491 -0.351563,2.06641 -0.0943,0.56573 -0.189043,1.13038 -0.283203,1.69531 -0.18124,1.08739 -0.260342,1.56115 -0.289062,1.73243 0,0.0103 -0.0039,0.0136 -0.0039,0.0215 0,0.004 -0.0039,0.0171 -0.0039,0.0195 -0.004,0.0126 -0.0058,0.0309 -0.0078,0.041 0,0.005 0.0011,0.006 -0.0039,0.0273 0,0.005 -0.0097,0.064 -0.0098,0.0645 0,0.002 0.0059,0.0194 0.0059,0.0176 0,0.006 -0.0087,0.0612 -0.0098,0.0684 0.605401,-3.68725 0.20561,-2.82276 -0.58789,3.66211 -0.13675,1.13954 -0.155021,1.89024 -0.181641,2.23633 -0.047,0.61205 -0.09352,1.22346 -0.140625,1.83594 -0.0458,0.59485 -0.09456,1.21702 -0.142578,1.86523 -0.0602,0.81249 -0.09247,1.42126 -0.128906,1.82227 0.0368,-0.40381 -0.0729,0.0449 -0.160156,1.35937 -0.0763,1.15374 -0.01953,1.69284 -0.01953,1.60938 v 3.18164 c -0.008,0.049 -0.0056,0.0276 -0.01367,0.0781 2.32131,-1.76879 12.157034,4.44684 17.371094,7.15625 0.004,-0.005 -0.151892,1.02959 0.773438,-1.7207 0.0561,-0.16685 0.06673,-0.25998 0.113281,-0.41211 0.004,-0.003 0.0029,-0.0111 0.0059,-0.0234 0.49884,-1.638 0.500167,-2.30625 0.435547,-2.63672 0.25104,-1.8392 0.08789,-2.48785 0.08789,-1.80664 v -0.56445 -3.25195 c 0,-0.7386 0.01072,-0.85259 -0.02148,-0.36719 0,0 0,-0.002 0,-0.002 -0.0364,0.55104 0.01981,0.2572 0.125,-0.9004 0.0832,-0.91587 0.114873,-1.62889 0.152343,-2.13476 0.0427,-0.57701 0.09219,-1.18049 0.140625,-1.81055 0.0471,-0.61218 0.09359,-1.22527 0.140625,-1.83789 0.0675,-0.87787 0.09202,-1.35789 0.101563,-1.4375 v -0.002 c -0.005,0.0394 0.08388,-0.40162 0.232422,-1.33008 0.18642,-1.16515 0.266353,-1.66765 0.314453,-1.99023 0.008,-0.052 0.0192,-0.13741 0.0293,-0.21094 0.004,-0.0233 0.01308,-0.0848 0.01758,-0.11133 0.0116,-0.0471 0.05767,0.0245 0.07227,-0.43359 0.0443,-0.26506 0.04733,-0.27426 0.123047,-0.72852 0.0943,-0.56573 0.18709,-1.13037 0.28125,-1.69531 0.13547,-0.81292 0.198621,-1.25549 0.212891,-1.32422 -0.0323,0.15605 0.153568,-0.39974 0.423828,-1.69727 0.2709,-1.30046 0.320413,-1.87395 0.283203,-1.69531 0.0176,-0.0855 0.140407,-0.52834 0.341797,-1.33398 0.20043,-0.80146 0.301015,-1.25085 0.328125,-1.34375 -0.0327,0.11178 0.200106,-0.44126 0.566406,-1.69727 0.26999,-0.92567 0.390427,-1.31334 0.560547,-2.06836 0.0652,-0.28942 0.341639,-0.21909 0.318359,-1.57422 -0.0206,0.0767 0.145061,-0.36039 0.462891,-1.35351 0.18935,-0.5917 0.424143,-1.3113 0.664063,-2.16797 0.0718,-0.25622 0.03914,-0.16593 0.08984,-0.36133 v 2.35352 2.26172 c 0,0.62191 -0.02979,1.51355 0.0039,2.67187 0.0389,1.35236 0.130785,2.19852 0.140625,2.54297 0.004,0.0752 -0.08888,0.97365 0.01172,2.68555 0.10179,1.73095 0.296882,2.60674 0.300782,2.65234 0.13081,1.52594 0.108211,1.26027 0.107421,1.65625 0,0.39535 0.02478,1.49944 0.179688,3.19727 0.14962,1.64573 0.259451,2.57629 0.425781,3.39453 0.16633,0.81823 0.145621,0.56654 0.363281,1.91601 0.0267,0.16404 0.07859,0.89328 0.291016,2.16797 0.28122,1.68734 0.682836,3.37146 0.978516,4.60352 0.10689,0.44547 0.258365,1.16571 0.541015,2.13476 0.3529,1.20989 0.591798,1.78518 0.585938,1.76563 -0.1931,-0.64336 -0.14918,-0.15216 0.369141,1.40234 0.461519,1.38421 0.774752,1.89461 0.664062,1.62891 v 0.002 c 0.0285,0.0686 0.104582,0.26251 0.232422,0.58203 0.11193,0.27987 0.485136,1.31678 1.128906,2.44336 0.510832,0.89372 0.76825,1.1905 0.623047,0.97266 -0.20598,-0.30894 -0.02082,0.10374 0.761719,1.08203 0.86732,1.08406 1.131328,1.22595 0.892578,0.9668 0.11988,0.13256 0.121539,0.16091 0.292969,0.33007 0.54458,0.53731 1.347202,1.3597 3.195312,2.10743 1.84762,0.74752 5.306476,0.96608 7.853516,-0.30665 3.33261,-1.66585 3.664301,-3.12843 4.113281,-3.9082 0.44879,-0.77945 0.61699,-1.24935 0.6875,-1.42578 v -0.002 c 0.0824,-0.20583 0.15089,-0.30839 0.375,-1.03125 0.22427,-0.72331 0.477514,-3.40439 0.308594,-4.42774 -0.16892,-1.02335 0.0642,0.28422 0.0957,0.92969 0.0315,0.64546 -0.01144,0.98287 -0.02344,1.0918 -0.155843,1.40601 -0.04513,1.16644 0.152344,-0.81055 v -0.002 -0.002 c 0.14557,-1.4655 0.04492,-2.01758 0.04492,-1.63476 v -0.99024 c 0,-0.74007 0.01072,-0.85597 -0.02148,-0.36718 0,0 0,-0.002 0,-0.002 -0.0364,0.55288 0.01786,0.25807 0.123047,-0.90039 l 0.0098,-0.0976 0.0078,-0.0977 c -0.081,1.15659 0.0029,-0.0479 0.0098,-0.15625 0.008,-0.1084 0.0201,-0.2637 0.0332,-0.44922 0.0267,-0.37105 0.0604,-0.86506 0.0957,-1.35937 0.0679,-0.95068 0.11527,-1.63287 0.11914,-1.68946 -0.0511,0.49986 0.297122,-1.95772 0.451172,-3.00195 0.13348,0.32813 0.295766,0.717 0.660156,1.37305 1.111224,2.00019 2.365624,3.02038 2.414064,3.06836 0.3645,0.97609 3.19587,2.49851 5.15039,3.02148 0.19302,0.0516 0.35763,0.0929 0.51367,0.13086 0.15608,0.038 -1.0698,-0.0956 1.05469,0.20899 h 0.004 0.004 c 3.99944,0.28537 4.76548,-0.0318 7.35742,-1.53321 -1.82994,0.39858 -1.74781,0.53912 0.01,-0.004 0.17606,-0.10124 0.324,-0.18613 0.45703,-0.26954 -0.0199,0.0512 -7e-5,0.0771 -0.11523,0.14649 1.43123,-0.52413 1.47583,-1.05313 2.01953,-1.52344 0.38174,-0.33018 0.75577,-0.68005 1.2539,-1.3164 0.23983,-0.30635 0.51767,-0.69576 0.82617,-1.25391 -0.18598,0.3928 -0.42585,0.95063 -0.55273,1.16211 0.10423,-0.0891 0.11025,-0.0885 0.35156,-0.3086 0.76309,-0.6958 1.27882,-1.33104 1.91016,-2.09765 1.03887,-1.26145 1.63912,-2.13647 1.94531,-2.50391 -0.0199,0.0239 0.38455,-0.37597 1.13086,-1.27148 0.72544,-0.87056 1.03797,-1.33018 1.02344,-1.3125 v -0.002 c 0.35308,-0.42876 0.70882,-0.79238 1.06055,-1.13476 0.30826,0.19196 0.59177,0.376 0.62695,0.38867 0.46016,0.30477 0.81526,0.53666 0.78125,0.51172 -0.584,-0.42823 -0.35056,-0.19065 0.76562,0.64648 1.14452,0.85829 1.9597,1.29069 2.35743,1.5293 0.23591,0.14157 0.47022,0.2829 0.70507,0.42383 0.23493,0.14094 0.47083,0.28213 0.70703,0.42383 -0.37438,-0.22459 0.10657,0.21812 1.6504,0.91992 1.46382,0.66535 2.10391,0.75531 1.76562,0.64258 0.28318,0.0944 0.56444,0.18942 0.8457,0.2832 0.36255,0.12083 2.29644,0.74074 3.88477,0.87305 h 0.004 0.004 c 1.30891,0.10816 1.85373,0.0312 1.6211,0.0312 h 0.99023 c -0.11902,0 0.43896,0.0645 1.66211,-0.0234 1.20524,-0.0866 1.75023,-0.22631 1.64258,-0.21094 -0.0989,0.0141 0.45667,-0.005 1.6289,-0.25586 1.36008,-0.29144 1.77695,-0.47299 1.29883,-0.35351 0.0432,-0.0108 0.79266,-0.11216 2.18945,-0.51953 1.73213,-0.5053 2.21185,-0.75303 1.50391,-0.55079 -0.63856,0.18247 -0.35186,0.12529 0.87109,-0.14648 0.60555,-0.13453 1.10848,-0.26695 1.51368,-0.375 0.67178,-0.17918 0.98793,-0.28301 0.95898,-0.27539 0.2852,-0.0751 0.88363,-0.20156 1.77734,-0.44531 0.92424,-0.25209 0.84436,-0.24981 0.74219,-0.24024 0.12759,-0.0182 0.19287,-0.0285 0.4961,-0.0664 0.32672,-0.0408 0.7291,-0.0886 1.20703,-0.15235 0.91256,-0.12171 1.03848,-0.12446 0.37304,-0.0801 -0.45735,0.0306 -0.29065,0.0215 0.50391,0.0215 h 1.13086 c 0.78971,0 1.02952,0.003 0.72266,-0.0156 -0.48988,-0.0286 -0.29502,-0.009 0.58203,0.0937 v -0.002 c 0.37981,0.0447 0.88518,0.11034 1.51953,0.16797 0.82425,0.0749 1.46012,0.10929 1.90625,0.14648 1.07333,0.0894 1.48276,0.13113 2.50976,0.25196 0.33833,0.0398 0.6667,0.0804 0.98633,0.12304 -0.25182,-0.0336 0.27666,0.11434 1.60352,0.20313 1.62624,0.10878 2.00519,0.0585 1.13086,0 -1.06913,-0.071 -0.74546,0.0249 0.99023,0.14062 1.62628,0.10878 2.00517,0.0585 1.13086,0 -1.04296,-0.0695 -0.72265,0.0194 0.93945,0.13868 1.22431,0.088 1.78121,0.0234 1.66211,0.0234 -0.11898,0 0.44009,0.0643 1.66211,-0.0234 0.74296,-0.0532 0.28144,-0.0353 0.48047,-0.0664 0.17605,10e-4 0.60212,-0.0158 1.4082,-0.0781 1.07327,-0.0829 1.63381,-0.21348 1.69336,-0.22265 0.48018,-0.0739 0.10619,0.17506 2.59571,-0.50391 0.35594,-0.0971 1.57343,-0.34775 2.07226,-0.4375 0.12469,-0.0224 0.18387,-0.0331 0.28321,-0.0508 0.0248,-0.004 -0.001,0.002 0.18554,-0.0352 0.047,-0.009 0.0853,-0.0137 0.30469,-0.0644 0.10972,-0.0253 0.77726,-0.21482 0.77734,-0.21484 0,-4e-5 -1.10348,-18.14649 -1.10351,-18.14649 -4e-5,-2e-5 -2.35201,-0.1569 -2.55078,-0.14062 -0.19877,0.0163 -0.27312,0.0277 -0.33594,0.0351 -0.12559,0.0148 -0.16542,0.0204 -0.20117,0.0254 -0.28595,0.04 -0.18401,0.0276 -0.23242,0.0352 -0.19358,0.0303 -0.62732,0.0987 -1.51368,0.23242 l 0.0117,0.0762 c -0.74837,0.13994 -1.48066,0.25698 -2.63672,0.57227 1.89944,-0.51802 -0.43095,0.0451 -0.49218,0.0586 -0.23681,0.007 -0.49258,0.0119 -1.14844,0.0625 -1.58637,0.12194 -1.89309,0.20684 -0.93555,0.13868 h -0.006 -0.004 c 0.56639,-0.0407 0.46418,-0.0234 -0.31446,-0.0234 -0.77864,0 -0.88282,-0.0173 -0.3164,0.0234 h -0.004 -0.004 c 1.01605,0.0726 0.67016,-0.0307 -1.0332,-0.14454 -1.6264,-0.1088 -2.00302,-0.0585 -1.1289,0 1.06677,0.0707 0.74425,-0.0249 -0.99024,-0.14062 -1.62639,-0.1088 -2.00501,-0.0585 -1.13086,0 0.6648,0.0444 0.53937,0.0416 -0.37304,-0.0801 -0.43344,-0.0578 -0.85735,-0.1112 -1.27344,-0.16015 -1.15294,-0.13565 -1.96471,-0.21617 -3.14453,-0.31446 -0.77763,-0.0648 -1.36656,-0.0985 -1.76563,-0.13476 -0.21544,-0.0196 -0.55786,-0.0602 -1.02539,-0.11524 0.12247,0.0144 -0.43182,-0.11843 -1.67773,-0.1914 -1.15166,-0.0673 -1.76209,-0.0156 -1.82032,-0.0156 h -1.13086 c 0.0408,0 -0.54638,-0.0593 -1.75586,0.0215 -1.32629,0.0887 -1.85529,0.2367 -1.60351,0.20312 -0.27498,0.0367 -0.62764,0.0776 -1.05469,0.13086 0.20797,-0.026 -0.48058,-0.0451 -2.00195,0.29297 -1.52266,0.33827 -2.11659,0.60461 -1.84766,0.53125 -0.23071,0.0629 -0.77336,0.18078 -1.61523,0.40234 -0.69228,0.18221 -1.02858,0.29343 -1.01953,0.29102 -0.34509,0.092 -0.59531,0.15551 -0.74805,0.18945 0.2849,-0.0633 -0.39263,-0.0266 -1.95508,0.41992 -6.71884,3.31213 -6.60646,-1.32882 -15.27344,-4.63672 -0.0523,-0.0209 -0.44999,-0.1864 -0.90625,-0.36132 -0.45642,-0.17499 -0.42111,-0.35513 -2.45312,-0.72461 -0.49429,-0.0899 -0.50599,-0.0577 -0.86719,-0.10938 0.45228,-0.009 0.21849,-0.0181 -0.70117,-0.0898 -0.67174,-0.0687 -0.84356,-0.10409 -0.55078,-0.0332 -0.40061,-0.0184 -0.4163,-0.0605 -0.97461,-0.0605 -2.09291,0 -1.5786,0.12339 -1.84375,0.16797 -0.26519,0.0446 -0.48065,0.0848 -0.68945,0.125 -0.41759,0.0804 -0.84958,0.16912 -0.86328,0.17187 0.34087,-0.0682 -0.20722,-0.051 -1.5625,0.35547 -1.58052,0.47418 -3.31657,1.51141 -3.54493,1.64844 -0.70632,0.42381 -1.78021,1.16212 -2.52734,1.77344 -0.11182,0.0915 -0.57069,0.42488 -1.29102,1.09375 -0.58805,0.54606 -1.06732,1.12898 -1.59375,1.69726 -0.0706,-0.30278 -0.0175,-0.307 -0.40429,-1.27344 -0.58133,-1.45303 -1.02408,-2.11848 -1.02735,-2.125 -0.16171,-0.32335 -0.4153,-0.87711 -0.81836,-1.63281 -0.50459,-0.94602 -1.0046,-1.79702 -2.0039,-2.96289 v -0.002 c -0.0928,-0.10857 -0.6413,-0.91356 -2.09375,-1.95117 -1.23632,-0.88303 -2.20035,-1.23772 -2.72266,-1.4336 -1.64866,-0.61875 -3.4287,-0.97719 -5.757811,-0.64453 -1.86174,0.2659 -2.718669,0.77284 -2.792969,0.80469 -0.99138,0.42488 -2.837186,1.65424 -3.066406,1.82617 -0.39104,0.29333 -0.89017,0.76309 -1.375,1.19922 v -1.03906 c 0,-0.95015 -0.01541,-1.60602 -0.0039,-1.9668 v -0.002 c 0.006,-0.17675 0.09771,-0.92451 0.140624,-2.25 0.036,-1.11118 0.0059,-1.92019 0.0059,-2.42383 v -6.50195 -2.11915 c 0,-0.42801 0.03389,-1.20428 -0.0078,-2.32617 -0.0418,-1.12793 -0.135706,-1.85399 -0.160156,-2.18359 -0.0282,-0.38174 -0.04463,-1.15988 -0.173828,-2.32227 -0.07011,-0.63121 -0.105246,-0.75659 -0.166016,-1.11523 -0.05525,-0.32605 -0.137376,-0.90885 -0.152343,-1.01367 -0.0312,-0.2184 -0.02447,-0.16993 -0.04297,-0.30664 0.006,0.0986 -0.0173,0.42817 -0.0293,0.67773 0.004,-0.37291 0.0098,-0.74997 0.0098,-0.75 0,-3e-5 -0.0092,-0.1018 -0.01563,-0.17969 0,-0.006 -0.0049,-0.0259 -0.0059,-0.0312 0,0.001 -9.4e-5,0.006 0.0039,0.008 -0.007,-0.0867 -0.01112,-0.15239 -0.01563,-0.19336 -0.0716,-0.67556 -0.06176,-0.46859 -0.06836,-0.50977 -0.0131,-0.0824 -0.01308,-0.0872 -0.01758,-0.11328 -0.0176,-0.10444 -0.05004,-0.29788 -0.132813,-0.79492 0.0568,0.34077 0.06208,-0.27818 -0.345703,-1.77344 -0.44117,-1.61756 -0.790946,-2.14384 -0.623047,-1.72266 v -0.002 c -0.215419,-0.53844 -1.206303,-2.45287 -1.470703,-2.84961 v -0.002 c 0.18469,0.27698 -0.02449,-0.075 -0.425781,-0.63477 -0.40137,-0.56015 -0.786831,-1.51263 -3.11914,-2.91211 -1.204221,-0.72244 -3.13853,-1.32493 -4.38086,-1.43945 -1.24252,-0.11455 -1.542205,-0.041 -1.296875,-0.041 0.44391,0 0.49379,-0.059 0.162109,-0.0723 z m 40.449218,68.58203 c -0.36498,0.39997 -0.28787,0.29086 -0.0664,0.0879 0.0485,-0.0444 0.0617,-0.0538 0.0996,-0.0879 -0.0109,0.004 -0.0216,-0.0127 -0.0332,0 z m -2.87109,2.36523 c -0.0547,0.0317 -0.21823,0.0738 -0.3086,0.10938 0.11602,-0.0366 0.20749,-0.0727 0.3086,-0.10938 z"
           transform="translate(3.1524141)" />
      </g>
      <circle
         transform="rotate(-112.77522)"
         r="84.407539"
         cy="42.724239"
         cx="-196.17059"
         id="path17689-5"
         style="opacity:0.57999998;fill:none;fill-opacity:1;stroke:url(#linearGradient6741);stroke-width:5.59344625;stroke-linecap:round;stroke-miterlimit:4;stroke-dasharray:none;stroke-opacity:1" />
    </g>
  </g>
</svg>
